<svg xmlns="http://www.w3.org/2000/svg" xmlns:xlink="http://www.w3.org/1999/xlink" viewBox="0 0 308.09 308.09">
  <defs>
    <style>
      .a {
        isolation: isolate;
      }

      .b {
        fill: url(#a);
      }

      .c {
        fill: #b3b3b3;
      }

      .d {
        fill: url(#b);
      }

      .e {
        fill: url(#c);
      }

      .f {
        fill: url(#d);
      }

      .g {
        fill: url(#e);
      }

      .h {
        fill: url(#f);
      }

      .i {
        fill: url(#g);
      }

      .j {
        fill: url(#h);
      }

      .k {
        fill: url(#i);
      }

      .l {
        fill: url(#j);
      }

      .m {
        mix-blend-mode: multiply;
      }

      .n {
        fill: #bcbcbc;
      }

      .cz, .o {
        fill: #fff;
      }

      .p {
        fill: url(#k);
      }

      .q {
        fill: url(#l);
      }

      .r {
        fill: url(#m);
      }

      .s {
        fill: url(#n);
      }

      .t {
        fill: url(#o);
      }

      .u {
        fill: url(#p);
      }

      .v {
        fill: url(#q);
      }

      .w {
        fill: url(#r);
      }

      .x {
        fill: url(#s);
      }

      .y {
        fill: url(#t);
      }

      .z {
        fill: url(#u);
      }

      .aa {
        fill: url(#v);
      }

      .ab {
        fill: url(#w);
      }

      .ac {
        fill: url(#x);
      }

      .ad {
        fill: url(#y);
      }

      .ae {
        fill: url(#z);
      }

      .af {
        fill: url(#aa);
      }

      .ag {
        fill: url(#ab);
      }

      .ah {
        fill: url(#ac);
      }

      .ai {
        fill: url(#ad);
      }

      .aj {
        fill: url(#ae);
      }

      .ak {
        fill: url(#af);
      }

      .al {
        fill: url(#ag);
      }

      .am {
        fill: url(#ah);
      }

      .an {
        fill: url(#ai);
      }

      .ao {
        fill: url(#aj);
      }

      .ap {
        fill: url(#ak);
      }

      .aq {
        fill: url(#al);
      }

      .ar {
        fill: url(#am);
      }

      .as {
        fill: url(#an);
      }

      .at {
        fill: url(#ao);
      }

      .au {
        fill: url(#ap);
      }

      .av {
        fill: url(#aq);
      }

      .aw {
        fill: url(#ar);
      }

      .ax {
        fill: url(#as);
      }

      .ay {
        fill: url(#at);
      }

      .az {
        fill: url(#au);
      }

      .ba {
        fill: url(#av);
      }

      .bb {
        fill: url(#aw);
      }

      .bc {
        fill: url(#ax);
      }

      .bd {
        fill: url(#ay);
      }

      .be {
        fill: url(#az);
      }

      .bf {
        fill: url(#ba);
      }

      .bg {
        fill: url(#bb);
      }

      .bh {
        fill: url(#bc);
      }

      .bi {
        fill: url(#bd);
      }

      .bj {
        fill: url(#be);
      }

      .bk {
        fill: url(#bf);
      }

      .bl {
        fill: url(#bg);
      }

      .bm {
        fill: url(#bh);
      }

      .bn {
        fill: url(#bi);
      }

      .bo {
        fill: url(#bj);
      }

      .bp {
        fill: url(#bk);
      }

      .bq {
        fill: url(#bl);
      }

      .br {
        fill: url(#bm);
      }

      .bs {
        fill: url(#bn);
      }

      .bt {
        fill: url(#bo);
      }

      .bu {
        fill: url(#bp);
      }

      .bv {
        fill: url(#bq);
      }

      .bw {
        fill: url(#br);
      }

      .bx {
        fill: url(#bs);
      }

      .by {
        fill: url(#bt);
      }

      .bz {
        fill: url(#bu);
      }

      .ca {
        fill: url(#bv);
      }

      .cb {
        fill: url(#bw);
      }

      .cc {
        fill: url(#bx);
      }

      .cd {
        fill: url(#by);
      }

      .ce {
        fill: url(#bz);
      }

      .cf {
        fill: url(#ca);
      }

      .cg {
        fill: url(#cb);
      }

      .ch {
        fill: url(#cc);
      }

      .ci {
        fill: url(#cd);
      }

      .cj {
        fill: url(#ce);
      }

      .ck {
        fill: url(#cf);
      }

      .cl {
        fill: url(#cg);
      }

      .cm {
        fill: url(#ch);
      }

      .cn {
        fill: url(#ci);
      }

      .co {
        fill: url(#cj);
      }

      .cp {
        fill: url(#ck);
      }

      .cq {
        fill: url(#cl);
      }

      .cr {
        fill: url(#cm);
      }

      .cs {
        fill: url(#cn);
      }

      .ct {
        fill: url(#co);
      }

      .cu {
        fill: url(#cp);
      }

      .cv {
        fill: url(#cq);
      }

      .cw {
        fill: url(#cr);
      }

      .cx {
        fill: url(#cs);
      }

      .cy {
        fill: url(#ct);
      }

      .cz {
        font-size: 123.58px;
        font-family: Gill Sans MT;
      }
    </style>
    <radialGradient id="a" cx="156.02" cy="116.55" r="186.22" gradientUnits="userSpaceOnUse">
      <stop offset="0" stop-color="#87c039"/>
      <stop offset="0.87" stop-color="#a2c43c"/>
    </radialGradient>
    <linearGradient id="b" x1="-949.45" y1="195.37" x2="-946.5" y2="195.37" gradientTransform="matrix(0.5, -0.86, -0.86, -0.5, 696.65, -661.45)" gradientUnits="userSpaceOnUse">
      <stop offset="0" stop-color="#e6e6e6"/>
      <stop offset="0.23" stop-color="#f4f4f4"/>
      <stop offset="0.52" stop-color="#fcfcfc"/>
      <stop offset="1" stop-color="#fff"/>
    </linearGradient>
    <linearGradient id="c" x1="-965.05" y1="238.47" x2="-962.1" y2="238.47" xlink:href="#b"/>
    <linearGradient id="d" x1="8.81" y1="7.2" x2="14.15" y2="7.2" gradientUnits="userSpaceOnUse">
      <stop offset="0" stop-color="#ccc"/>
      <stop offset="0.88" stop-color="#f2f2f2"/>
    </linearGradient>
    <linearGradient id="e" x1="7.36" y1="3.35" x2="15.24" y2="11.23" gradientUnits="userSpaceOnUse">
      <stop offset="0" stop-color="#fff"/>
      <stop offset="0.48" stop-color="#fcfcfc"/>
      <stop offset="0.77" stop-color="#f4f4f4"/>
      <stop offset="1" stop-color="#e6e6e6"/>
    </linearGradient>
    <linearGradient id="f" x1="-1814.29" y1="225.13" x2="-1811.34" y2="225.13" gradientTransform="matrix(0.96, -0.28, -0.28, -0.96, 1823.58, -277.43)" xlink:href="#b"/>
    <linearGradient id="g" x1="-915.64" y1="22.66" x2="-905.8" y2="22.66" xlink:href="#b"/>
    <linearGradient id="h" x1="-131.84" y1="-1165.86" x2="-126.1" y2="-1165.86" gradientTransform="matrix(-0.75, -0.66, -0.66, 0.75, -687.72, 888.22)" xlink:href="#b"/>
    <linearGradient id="i" x1="-169.73" y1="-1228.43" x2="-163.1" y2="-1228.43" gradientTransform="matrix(-0.75, -0.66, -0.66, 0.75, -687.72, 888.22)" xlink:href="#b"/>
    <linearGradient id="j" x1="-421.36" y1="-579.41" x2="-416.94" y2="-579.41" gradientTransform="matrix(-0.51, -0.86, -0.86, 0.51, -456.67, 26.89)" xlink:href="#b"/>
    <linearGradient id="k" x1="191.31" y1="5.5" x2="199.19" y2="13.38" gradientTransform="matrix(0.81, -0.58, 0.58, 0.81, -8.72, 162.97)" xlink:href="#e"/>
    <linearGradient id="l" x1="-937.25" y1="47.72" x2="-927.5" y2="47.72" gradientTransform="matrix(0.16, -0.99, -0.99, -0.16, 375.79, -781.75)" xlink:href="#b"/>
    <linearGradient id="m" x1="-903.66" y1="9.99" x2="-897.91" y2="9.99" xlink:href="#b"/>
    <linearGradient id="n" x1="-1979.8" y1="-157.45" x2="-1975.28" y2="-157.45" gradientTransform="matrix(0.85, -0.53, -0.53, -0.85, 1764.44, -1048.15)" xlink:href="#b"/>
    <linearGradient id="o" x1="-911.92" y1="45.6" x2="-904" y2="45.6" xlink:href="#b"/>
    <linearGradient id="p" x1="-981.68" y1="108.54" x2="-973.53" y2="108.54" xlink:href="#b"/>
    <linearGradient id="q" x1="-813.97" y1="79.09" x2="-808.23" y2="79.09" gradientTransform="matrix(-0.17, -0.98, -0.98, 0.17, 107.78, -732.47)" xlink:href="#b"/>
    <linearGradient id="r" x1="-830.59" y1="-55.27" x2="-818.42" y2="-55.27" gradientTransform="matrix(-0.4, -0.92, -0.92, 0.4, -137.03, -668.64)" xlink:href="#b"/>
    <linearGradient id="s" x1="-1159.25" y1="130.59" x2="-1148.45" y2="130.59" gradientTransform="matrix(0.94, -0.33, -0.33, -0.94, 1271.82, -112.02)" xlink:href="#b"/>
    <linearGradient id="t" x1="-848.63" y1="-22.94" x2="-843.69" y2="-22.94" gradientTransform="matrix(-0.4, -0.92, -0.92, 0.4, -137.03, -668.64)" xlink:href="#b"/>
    <linearGradient id="u" x1="-844.23" y1="22.85" x2="-839.29" y2="22.85" gradientTransform="matrix(-0.4, -0.92, -0.92, 0.4, -137.03, -668.64)" xlink:href="#b"/>
    <linearGradient id="v" x1="-365.22" y1="-1581.92" x2="-360.28" y2="-1581.92" gradientTransform="matrix(-0.91, -0.41, -0.41, 0.91, -745.69, 1350.47)" xlink:href="#b"/>
    <linearGradient id="w" x1="-795.88" y1="1182.5" x2="-788.26" y2="1182.5" gradientTransform="translate(-1298.46 -187.56) rotate(-111.39)" xlink:href="#b"/>
    <linearGradient id="x" x1="-795.88" y1="1182.36" x2="-788.26" y2="1182.36" gradientTransform="translate(-1298.46 -187.56) rotate(-111.39)" gradientUnits="userSpaceOnUse">
      <stop offset="0.55" stop-color="#e6e6e6"/>
      <stop offset="0.66" stop-color="#f4f4f4"/>
      <stop offset="0.79" stop-color="#fcfcfc"/>
      <stop offset="1" stop-color="#fff"/>
    </linearGradient>
    <linearGradient id="y" x1="-437.69" y1="2500.95" x2="-425.57" y2="2500.95" gradientTransform="translate(-1550.34 2069.17) rotate(-149.4)" xlink:href="#b"/>
    <linearGradient id="z" x1="-437.69" y1="2500.73" x2="-425.57" y2="2500.73" gradientTransform="translate(-1550.34 2069.17) rotate(-149.4)" xlink:href="#x"/>
    <linearGradient id="aa" x1="-825.72" y1="1199.94" x2="-820.44" y2="1199.94" gradientTransform="translate(-1345.82 193.44) rotate(-126.16)" xlink:href="#b"/>
    <linearGradient id="ab" x1="-825.72" y1="1199.85" x2="-820.44" y2="1199.85" gradientTransform="translate(-1345.82 193.44) rotate(-126.16)" xlink:href="#x"/>
    <linearGradient id="ac" x1="-611.02" y1="1245.32" x2="-605.93" y2="1245.32" gradientTransform="translate(-799.17 -899.61) rotate(-71.28)" xlink:href="#b"/>
    <linearGradient id="ad" x1="-611.02" y1="1245.23" x2="-605.93" y2="1245.23" gradientTransform="translate(-799.17 -899.61) rotate(-71.28)" xlink:href="#x"/>
    <linearGradient id="ae" x1="-1866.98" y1="1294.43" x2="-1861.88" y2="1294.43" gradientTransform="matrix(0.79, -0.62, 0.62, 0.79, 814.2, -2062.29)" xlink:href="#b"/>
    <linearGradient id="af" x1="-1866.98" y1="1294.33" x2="-1861.88" y2="1294.33" gradientTransform="matrix(0.79, -0.62, 0.62, 0.79, 814.2, -2062.29)" xlink:href="#x"/>
    <linearGradient id="ag" x1="-655.05" y1="1346.84" x2="-648.84" y2="1346.84" gradientTransform="translate(-1280.65 650.45) rotate(-135.94)" xlink:href="#b"/>
    <linearGradient id="ah" x1="-655.05" y1="1346.73" x2="-648.84" y2="1346.73" gradientTransform="translate(-1280.65 650.45) rotate(-135.94)" xlink:href="#x"/>
    <linearGradient id="ai" x1="-674.73" y1="1251.37" x2="-664.9" y2="1251.37" gradientTransform="translate(-1280.78 392.76) rotate(-127.81)" xlink:href="#b"/>
    <linearGradient id="aj" x1="-674.73" y1="1251.34" x2="-664.9" y2="1251.34" gradientTransform="translate(-1280.78 392.76) rotate(-127.81)" gradientUnits="userSpaceOnUse">
      <stop offset="0.33" stop-color="#e6e6e6"/>
      <stop offset="0.49" stop-color="#f4f4f4"/>
      <stop offset="0.69" stop-color="#fcfcfc"/>
      <stop offset="1" stop-color="#fff"/>
    </linearGradient>
    <linearGradient id="ak" x1="-631.21" y1="1172.34" x2="-625.9" y2="1167.16" gradientTransform="translate(-1239.41 -48.35) rotate(-111.18)" gradientUnits="userSpaceOnUse">
      <stop offset="0.16" stop-color="#e6e6e6"/>
      <stop offset="0.36" stop-color="#f4f4f4"/>
      <stop offset="0.6" stop-color="#fcfcfc"/>
      <stop offset="1" stop-color="#fff"/>
    </linearGradient>
    <linearGradient id="al" x1="-632.36" y1="1169.76" x2="-624.6" y2="1169.76" gradientTransform="translate(-1239.41 -48.35) rotate(-111.18)" xlink:href="#b"/>
    <linearGradient id="am" x1="-977.11" y1="470.76" x2="-973.09" y2="466.84" gradientTransform="translate(-669.89 -615.89) rotate(-111.68)" xlink:href="#ak"/>
    <linearGradient id="an" x1="-977.98" y1="468.81" x2="-972.11" y2="468.81" gradientTransform="translate(-669.89 -615.89) rotate(-111.68)" xlink:href="#b"/>
    <linearGradient id="ao" x1="-429.31" y1="1369.96" x2="-424.57" y2="1365.34" gradientTransform="matrix(-0.03, -1, 1, -0.03, -1220.29, -263.64)" xlink:href="#ak"/>
    <linearGradient id="ap" x1="-430.32" y1="1367.66" x2="-423.41" y2="1367.66" gradientTransform="matrix(-0.03, -1, 1, -0.03, -1220.29, -263.64)" xlink:href="#b"/>
    <linearGradient id="aq" x1="-718.31" y1="1274.36" x2="-714.97" y2="1271.1" gradientTransform="translate(213.81 -1378.68) rotate(-25.99)" xlink:href="#ak"/>
    <linearGradient id="ar" x1="-719.02" y1="1272.74" x2="-714.16" y2="1272.74" gradientTransform="translate(213.81 -1378.68) rotate(-25.99)" xlink:href="#b"/>
    <linearGradient id="as" x1="-885.83" y1="-25.43" x2="-876.3" y2="-28.21" gradientTransform="matrix(0, -1, -1, 0, 212.45, -782.03)" gradientUnits="userSpaceOnUse">
      <stop offset="0.3" stop-color="#ccc"/>
      <stop offset="0.35" stop-color="#dadada"/>
      <stop offset="0.46" stop-color="#eee"/>
      <stop offset="0.56" stop-color="#fbfbfb"/>
      <stop offset="0.67" stop-color="#fff"/>
    </linearGradient>
    <linearGradient id="at" x1="-889.09" y1="-26.4" x2="-875.55" y2="-26.4" gradientTransform="matrix(0, -1, -1, 0, 212.45, -782.03)" xlink:href="#b"/>
    <linearGradient id="au" x1="-730.94" y1="-87.01" x2="-720.04" y2="-90.19" gradientTransform="matrix(-0.9, -0.43, -0.43, 0.9, -484.59, -171.62)" gradientUnits="userSpaceOnUse">
      <stop offset="0.37" stop-color="#ccc"/>
      <stop offset="0.41" stop-color="#dadada"/>
      <stop offset="0.5" stop-color="#eee"/>
      <stop offset="0.58" stop-color="#fbfbfb"/>
      <stop offset="0.67" stop-color="#fff"/>
    </linearGradient>
    <linearGradient id="av" x1="-734.67" y1="-88.12" x2="-719.18" y2="-88.12" gradientTransform="matrix(-0.9, -0.43, -0.43, 0.9, -484.59, -171.62)" xlink:href="#b"/>
    <linearGradient id="aw" x1="-692.47" y1="-78.62" x2="-685.6" y2="-80.63" gradientTransform="matrix(-0.9, -0.43, -0.43, 0.9, -484.59, -171.62)" gradientUnits="userSpaceOnUse">
      <stop offset="0.3" stop-color="#e6e6e6"/>
      <stop offset="0.37" stop-color="#efefef"/>
      <stop offset="0.52" stop-color="#fbfbfb"/>
      <stop offset="0.67" stop-color="#fff"/>
    </linearGradient>
    <linearGradient id="ax" x1="-694.83" y1="-79.32" x2="-685.06" y2="-79.32" gradientTransform="matrix(-0.9, -0.43, -0.43, 0.9, -484.59, -171.62)" xlink:href="#b"/>
    <linearGradient id="ay" x1="128.59" y1="-59.41" x2="139.83" y2="-48.16" gradientTransform="translate(39.84 126.47) rotate(-28.11)" xlink:href="#e"/>
    <linearGradient id="az" x1="111.68" y1="15.72" x2="117.02" y2="15.72" xlink:href="#d"/>
    <linearGradient id="ba" x1="110.23" y1="11.87" x2="118.11" y2="19.75" xlink:href="#e"/>
    <linearGradient id="bb" x1="-1717.89" y1="190.97" x2="-1714.95" y2="190.97" gradientTransform="matrix(0.96, -0.28, -0.28, -0.96, 1823.58, -277.43)" xlink:href="#b"/>
    <linearGradient id="bc" x1="-1716.45" y1="160.52" x2="-1713.5" y2="160.52" gradientTransform="matrix(0.96, -0.28, -0.28, -0.96, 1823.58, -277.43)" xlink:href="#b"/>
    <linearGradient id="bd" x1="392.97" y1="604.65" x2="395.92" y2="604.65" gradientTransform="matrix(0.23, -0.97, -0.97, -0.23, 662.59, 592.8)" xlink:href="#b"/>
    <linearGradient id="be" x1="-784.24" y1="152.69" x2="-778.46" y2="152.69" gradientTransform="matrix(-0.12, -0.99, -0.99, 0.12, 199.2, -761.85)" xlink:href="#b"/>
    <linearGradient id="bf" x1="-843.02" y1="324.6" x2="-831.39" y2="324.6" gradientTransform="matrix(-0.33, -0.94, -0.94, 0.33, 196.02, -877.47)" xlink:href="#b"/>
    <linearGradient id="bg" x1="-774.75" y1="23.8" x2="-766.55" y2="23.8" gradientTransform="matrix(-0.4, -0.92, -0.92, 0.4, -137.03, -668.64)" xlink:href="#b"/>
    <linearGradient id="bh" x1="-742.97" y1="1276.93" x2="-735.66" y2="1276.93" gradientTransform="translate(-1345.82 193.44) rotate(-126.16)" xlink:href="#b"/>
    <linearGradient id="bi" x1="-742.97" y1="1276.79" x2="-735.66" y2="1276.79" gradientTransform="translate(-1345.82 193.44) rotate(-126.16)" xlink:href="#x"/>
    <linearGradient id="bj" x1="34.59" y1="31.82" x2="43.5" y2="40.73" xlink:href="#e"/>
    <linearGradient id="bk" x1="-894.35" y1="172.04" x2="-891.4" y2="172.04" xlink:href="#b"/>
    <linearGradient id="bl" x1="-718.87" y1="1218.77" x2="-713.25" y2="1218.77" gradientTransform="translate(-1298.46 -187.56) rotate(-111.39)" xlink:href="#b"/>
    <linearGradient id="bm" x1="-718.87" y1="1218.67" x2="-713.25" y2="1218.67" xlink:href="#x"/>
    <linearGradient id="bn" x1="-597.01" y1="1150.64" x2="-592.08" y2="1150.64" gradientTransform="translate(-1074.29 -556.72) rotate(-89.72)" xlink:href="#b"/>
    <linearGradient id="bo" x1="-597.01" y1="1150.55" x2="-592.08" y2="1150.55" gradientTransform="translate(-1074.29 -556.72) rotate(-89.72)" xlink:href="#x"/>
    <linearGradient id="bp" x1="-601.99" y1="1171.44" x2="-595.77" y2="1171.44" gradientTransform="matrix(0.48, -0.88, 0.88, 0.48, -675.63, -1066.88)" xlink:href="#b"/>
    <linearGradient id="bq" x1="-601.99" y1="1171.32" x2="-595.77" y2="1171.32" gradientTransform="matrix(0.48, -0.88, 0.88, 0.48, -675.63, -1066.88)" xlink:href="#x"/>
    <linearGradient id="br" x1="189.5" y1="1369.26" x2="198.07" y2="1369.26" gradientTransform="translate(-1295.94 72.56) rotate(-84.42)" xlink:href="#b"/>
    <linearGradient id="bs" x1="189.5" y1="1369.11" x2="198.07" y2="1369.11" gradientTransform="translate(-1295.94 72.56) rotate(-84.42)" xlink:href="#x"/>
    <linearGradient id="bt" x1="-1090.85" y1="1161.02" x2="-1085.89" y2="1156.18" gradientTransform="matrix(0.68, -0.74, 0.74, 0.68, -78.01, -1571.44)" xlink:href="#ak"/>
    <linearGradient id="bu" x1="-1091.92" y1="1158.62" x2="-1084.68" y2="1158.62" gradientTransform="matrix(0.68, -0.74, 0.74, 0.68, -78.01, -1571.44)" xlink:href="#b"/>
    <linearGradient id="bv" x1="-606.09" y1="1150.72" x2="-601.48" y2="1146.23" gradientTransform="translate(-1074.29 -556.72) rotate(-89.72)" gradientUnits="userSpaceOnUse">
      <stop offset="0.16" stop-color="#ccc"/>
      <stop offset="0.19" stop-color="#d2d2d2"/>
      <stop offset="0.33" stop-color="#e6e6e6"/>
      <stop offset="0.49" stop-color="#f4f4f4"/>
      <stop offset="0.68" stop-color="#fcfcfc"/>
      <stop offset="1" stop-color="#fff"/>
    </linearGradient>
    <linearGradient id="bw" x1="-607.08" y1="1148.49" x2="-600.36" y2="1148.49" gradientTransform="translate(-1074.29 -556.72) rotate(-89.72)" xlink:href="#b"/>
    <linearGradient id="bx" x1="-938.75" y1="169.6" x2="-930.54" y2="169.6" gradientTransform="matrix(-0.23, -0.97, -0.97, 0.23, -19.93, -816.07)" xlink:href="#b"/>
    <linearGradient id="by" x1="-970.98" y1="208.05" x2="-966.81" y2="208.05" gradientTransform="matrix(0.16, -0.99, -0.99, -0.16, 375.79, -781.75)" xlink:href="#b"/>
    <linearGradient id="bz" x1="-1055.65" y1="203.45" x2="-1047.74" y2="203.45" gradientTransform="matrix(0.74, -0.68, -0.68, -0.74, 927.04, -404.63)" xlink:href="#b"/>
    <linearGradient id="ca" x1="-688.07" y1="1198.56" x2="-676.9" y2="1198.56" gradientTransform="matrix(-0.66, -0.75, 0.75, -0.66, -1336.13, 358.3)" xlink:href="#b"/>
    <linearGradient id="cb" x1="-688.06" y1="1198.36" x2="-676.9" y2="1198.36" gradientTransform="matrix(-0.66, -0.75, 0.75, -0.66, -1336.13, 358.3)" gradientUnits="userSpaceOnUse">
      <stop offset="0.55" stop-color="#ccc"/>
      <stop offset="0.57" stop-color="#d2d2d2"/>
      <stop offset="0.64" stop-color="#e6e6e6"/>
      <stop offset="0.73" stop-color="#f4f4f4"/>
      <stop offset="0.83" stop-color="#fcfcfc"/>
      <stop offset="1" stop-color="#fff"/>
    </linearGradient>
    <linearGradient id="cc" x1="-598.83" y1="1107.18" x2="-593.9" y2="1107.18" gradientTransform="translate(-1074.29 -556.72) rotate(-89.72)" xlink:href="#b"/>
    <linearGradient id="cd" x1="-598.83" y1="1107.09" x2="-593.9" y2="1107.09" gradientTransform="translate(-1074.29 -556.72) rotate(-89.72)" xlink:href="#x"/>
    <linearGradient id="ce" x1="-3318.5" y1="573.1" x2="-3314.29" y2="569" gradientTransform="matrix(0.92, -0.4, 0.4, 0.92, 2830.84, -1737.75)" xlink:href="#ak"/>
    <linearGradient id="cf" x1="-3319.41" y1="571.06" x2="-3313.27" y2="571.06" gradientTransform="matrix(0.92, -0.4, 0.4, 0.92, 2830.84, -1737.75)" xlink:href="#b"/>
    <linearGradient id="cg" x1="-604.86" y1="1244.54" x2="-600.83" y2="1240.62" gradientTransform="translate(-1196.73 542.56) rotate(-134.64)" xlink:href="#ak"/>
    <linearGradient id="ch" x1="-605.72" y1="1242.59" x2="-599.85" y2="1242.59" gradientTransform="translate(-1196.73 542.56) rotate(-134.64)" xlink:href="#b"/>
    <linearGradient id="ci" x1="-687.02" y1="1149.14" x2="-682.28" y2="1144.51" gradientTransform="translate(-955.79 -723.55) rotate(-83.14)" xlink:href="#ak"/>
    <linearGradient id="cj" x1="-688.04" y1="1146.84" x2="-681.13" y2="1146.84" gradientTransform="translate(-955.79 -723.55) rotate(-83.14)" xlink:href="#b"/>
    <linearGradient id="ck" x1="-785.73" y1="1230.4" x2="-781.71" y2="1226.48" gradientTransform="translate(213.81 -1378.68) rotate(-25.99)" xlink:href="#ak"/>
    <linearGradient id="cl" x1="-786.59" y1="1228.45" x2="-780.73" y2="1228.45" gradientTransform="translate(213.81 -1378.68) rotate(-25.99)" xlink:href="#b"/>
    <linearGradient id="cm" x1="-648.75" y1="1111.47" x2="-644.14" y2="1106.98" xlink:href="#bv"/>
    <linearGradient id="cn" x1="-649.74" y1="1109.24" x2="-643.01" y2="1109.24" gradientTransform="translate(-1074.29 -556.72) rotate(-89.72)" xlink:href="#b"/>
    <linearGradient id="co" x1="383.29" y1="2767.46" x2="388.22" y2="2767.46" gradientTransform="matrix(-0.83, -0.56, 0.56, -0.83, -1167.7, 2546.65)" xlink:href="#b"/>
    <linearGradient id="cp" x1="383.29" y1="2767.37" x2="388.22" y2="2767.37" gradientTransform="matrix(-0.83, -0.56, 0.56, -0.83, -1167.7, 2546.65)" xlink:href="#x"/>
    <linearGradient id="cq" x1="374.81" y1="2769.08" x2="379.42" y2="2764.58" gradientTransform="matrix(-0.83, -0.56, 0.56, -0.83, -1167.7, 2546.65)" xlink:href="#bv"/>
    <linearGradient id="cr" x1="373.82" y1="2766.84" x2="380.54" y2="2766.84" gradientTransform="matrix(-0.83, -0.56, 0.56, -0.83, -1167.7, 2546.65)" xlink:href="#b"/>
    <linearGradient id="cs" x1="-921.07" y1="118.8" x2="-913.14" y2="118.8" xlink:href="#b"/>
    <linearGradient id="ct" x1="-788.24" y1="131.01" x2="-782.5" y2="131.01" gradientTransform="matrix(-0.17, -0.98, -0.98, 0.17, 107.78, -732.47)" xlink:href="#b"/>
  </defs>
  <title>css_tree3</title>
  <g class="a">
    <g>
      <rect class="b" width="308.09" height="308.09"/>
      <g>
        <path class="c" d="M49.86,58a4,4,0,0,0,.92,3.47,9.42,9.42,0,0,0,3.15,1.83,0.1,0.1,0,0,0,.06-0.1,10.68,10.68,0,0,0-1.05-3.25,6.37,6.37,0,0,0-3-2.05A0.33,0.33,0,0,0,49.86,58Z"/>
        <path class="d" d="M49.91,57.88a4,4,0,0,0,.92,3.47A9.39,9.39,0,0,0,54,63.18a9.2,9.2,0,0,0-1-3.35A6,6,0,0,0,49.91,57.88Z"/>
      </g>
      <g>
        <path class="c" d="M4.75,49.84a4,4,0,0,0,.92,3.47,9.4,9.4,0,0,0,3.15,1.83A0.1,0.1,0,0,0,8.88,55,10.68,10.68,0,0,0,7.83,51.8a6.36,6.36,0,0,0-3-2.05A0.32,0.32,0,0,0,4.75,49.84Z"/>
        <path class="e" d="M4.81,49.74a4,4,0,0,0,.92,3.47A9.39,9.39,0,0,0,8.88,55a9.21,9.21,0,0,0-1-3.35A6,6,0,0,0,4.81,49.74Z"/>
      </g>
      <g>
        <path class="f" d="M13.73,12.91S9.85,11.63,9.14,8.32A16.85,16.85,0,0,1,9,2.65a11,11,0,0,1,.23-1.15s3.24,2.68,4.24,4.83a10.42,10.42,0,0,1,.34,6.34C13.78,12.75,13.73,12.91,13.73,12.91Z"/>
        <path class="g" d="M13.81,12.66S9.93,11.39,9.22,8.08a17,17,0,0,1,0-6.58s3.32,2.43,4.32,4.59C14.87,8.94,13.81,12.66,13.81,12.66Z"/>
      </g>
      <g>
        <path class="c" d="M20.15,8.87A4,4,0,0,0,18.42,12a9.42,9.42,0,0,0,1,3.5,0.11,0.11,0,0,0,.11,0A10.69,10.69,0,0,0,21,12.41a6.37,6.37,0,0,0-.77-3.57A0.32,0.32,0,0,0,20.15,8.87Z"/>
        <path class="h" d="M20.26,8.84A4,4,0,0,0,18.53,12a9.4,9.4,0,0,0,1,3.5,9.22,9.22,0,0,0,1.59-3.11A6,6,0,0,0,20.26,8.84Z"/>
      </g>
      <g>
        <path class="c" d="M213,106.48s-1.56,7.38,3.08,11.6a31.43,31.43,0,0,0,10.54,6.11,0.35,0.35,0,0,0,.18-0.32c-0.39-1.41-1.29-7.67-3.52-10.86-3.16-4.52-9.39-6.67-10.1-6.86A1.09,1.09,0,0,0,213,106.48Z"/>
        <path class="i" d="M213.21,106.16s-1.56,7.38,3.08,11.6a31.42,31.42,0,0,0,10.54,6.11S226,116.3,223.5,112.7C220.16,107.91,213.21,106.16,213.21,106.16Z"/>
      </g>
      <g>
        <path class="c" d="M177.4,105.32s4,1.75,7-.41a18.34,18.34,0,0,0,4.72-5.31,0.2,0.2,0,0,0-.16-0.14c-0.85.06-4.54-.15-6.62,0.75a12.41,12.41,0,0,0-5.1,5A0.63,0.63,0,0,0,177.4,105.32Z"/>
        <path class="j" d="M177.24,105.18s4,1.75,7-.41A18.35,18.35,0,0,0,189,99.45s-4.42-.41-6.78.6C179,101.41,177.24,105.18,177.24,105.18Z"/>
      </g>
      <g>
        <path class="c" d="M246.07,83.89s4.67,2,8.08-.48a21.18,21.18,0,0,0,5.45-6.14,0.23,0.23,0,0,0-.19-0.17c-1,.07-5.24-0.18-7.64.86-3.41,1.48-5.67,5.31-5.89,5.75A0.72,0.72,0,0,0,246.07,83.89Z"/>
        <path class="k" d="M245.88,83.72s4.67,2,8.08-.48a21.19,21.19,0,0,0,5.45-6.14s-5.11-.48-7.83.7C248,79.37,245.88,83.72,245.88,83.72Z"/>
      </g>
      <g>
        <path class="c" d="M250.68,92.43s2.55,2.23,5.22,1.33A14.11,14.11,0,0,0,260.6,91a0.16,0.16,0,0,0-.08-0.14c-0.64-.15-3.29-1.17-5-1a9.55,9.55,0,0,0-4.9,2.46A0.46,0.46,0,0,0,250.68,92.43Z"/>
        <path class="l" d="M250.59,92.29s2.55,2.23,5.22,1.33a14.12,14.12,0,0,0,4.7-2.79s-3.15-1.34-5.11-1.14A9,9,0,0,0,250.59,92.29Z"/>
      </g>
      <g class="m">
        <path class="n" d="M8,80.8a14.36,14.36,0,0,0-8-.36v1.89C3.24,80.59,8,80.8,8,80.8Z"/>
        <polygon class="n" points="44.58 140.74 44.58 140.74 44.58 140.75 44.58 140.74"/>
      </g>
      <g>
        <path class="o" d="M87.32,185.31c-7.56-34.48-14.93-36.06-22-58a40.34,40.34,0,0,1-1.58-8.42c1.79-3.94,6.95-12.68,17.71-13.15a21.2,21.2,0,0,1,14.9,4.4c5.91,4.4,6,18,6,18s1.09-.73,1.09-7.34-2.64-9.22-2.64-9.22,2.37,1.4,3.76,2.28c6.87,4.33,13.92.09,13.92,0.09s-5.61,1.31-12.93-2.37C98.48,108,93.84,100.5,80.91,99.64c-8.31-.55-13.46,3.09-16.08,5.77,2.82-8.46,9.76-13.68,19-17.39,15.43-6.2,35.46.33,44.16,14.84s5.72,27.29,3.61,32.63C128,144.62,118,146.58,118,146.58A20.26,20.26,0,0,0,135.21,134a37.84,37.84,0,0,0,2.58-15.31l0.06,0a9.85,9.85,0,0,0,6.65,1.46c5.45-1,9.46-4.85,10.82-6.15l1.67-1.58a9.44,9.44,0,0,1,3.55.21,11.26,11.26,0,0,1,4.53,2.37,12.91,12.91,0,0,1,3.23,4.16,39.27,39.27,0,0,1,1.91,5.17h0.1a11.14,11.14,0,0,0-.75-5.71,14.5,14.5,0,0,0-3.21-5,12.76,12.76,0,0,0-5.2-3.16,11.37,11.37,0,0,0-1.61-.37,20.19,20.19,0,0,1,3.78-2.85,14.88,14.88,0,0,1,14.39,1.77c-0.74-.61-3.06-2.79-5.15-3.56a14.52,14.52,0,0,0-10.27-.21c-2,.65-7,4.64-8.4,5.79a18.69,18.69,0,0,1-9.63,4.4c-2.3.26-4.76-1.33-7-3.17a36.78,36.78,0,0,0-3.49-11.59c-0.56-1-1.12-1.92-1.66-2.75a57.51,57.51,0,0,0,10.89,2.5,59.58,59.58,0,0,0,17.3-.72c2.79-.5,5.53-1.15,8.21-1.88,2.24-.62,4.43-1.31,6.6-2l6.51-1.14c5.35-.94,13.62-3.12,21.86-1.81a10.6,10.6,0,0,1,5.07,2.31,11.54,11.54,0,0,1,3.41,4.72,16.15,16.15,0,0,1,1.05,6.16,13.75,13.75,0,0,0,.41-6.57,12.44,12.44,0,0,0-3.08-6.18,12.91,12.91,0,0,0-2.09-1.81q1.08,0,2.15,0a40.08,40.08,0,0,1,9.43,1.22,18.87,18.87,0,0,1,4.36,1.75,12.35,12.35,0,0,1,3.58,3,11.59,11.59,0,0,1,2.15,4.2,17.51,17.51,0,0,1,.6,4.79,16.63,16.63,0,0,0-.18-4.9,12.3,12.3,0,0,0-1.9-4.6,13.29,13.29,0,0,0-3.63-3.49,20.28,20.28,0,0,0-4.53-2.19,38.82,38.82,0,0,0-9.78-1.84,81.14,81.14,0,0,0-8.25-.16c-1.64-.19-9.27.63-11.44,0.87l-0.18,0,0.9-.34A146.72,146.72,0,0,1,206.37,85a53.52,53.52,0,0,1,15-1.93,40.51,40.51,0,0,1,14.58,3.28,54.88,54.88,0,0,1,6.88,3.53L249.76,94a39.32,39.32,0,0,0-11.92-11.33,35.76,35.76,0,0,0-7.72-3.52,40.88,40.88,0,0,0-8.38-1.7l-1.28-.11c0.49-.46,1-0.94,1.43-1.43A30.79,30.79,0,0,0,227,68.26a22.05,22.05,0,0,0,1.58-4.3,22.54,22.54,0,0,0,.17-4.56,26.81,26.81,0,0,1-1.43,4.15,37.9,37.9,0,0,1-1.92,3.88,30.62,30.62,0,0,1-5.28,6.75,24.11,24.11,0,0,1-3.9,3,66.79,66.79,0,0,0-11.32,1.2A148.84,148.84,0,0,0,189,82.55c-5.16,1.58-10.2,3.28-15.23,4.73-2.51.73-5,1.39-7.52,2s-5,1.07-7.47,1.42a52.77,52.77,0,0,1-14.64.17c-1.25-.17-2.52-0.43-3.8-0.74,0.3-.19.61-0.39,0.91-0.62,8-5.84,11-18.27,17.5-22,8.21-4.73,13-.67,13-0.67s-5.67-5-14.61-1.47c-2.68,1.05-5.24,3.49-7.63,6.31a11.76,11.76,0,0,0-.55-1.38,14.87,14.87,0,0,0-3.27-4.36c-1.22-1.17-2.44-2.14-3.57-3.08-2.27-1.88-4.11-3.7-4.6-6.14a12.39,12.39,0,0,1,0-4c0.09-.7.21-1.42,0.33-2.17s0.27-1.79.39-2.6l-0.22.18a10.69,10.69,0,0,0-1.62,1.79,11.77,11.77,0,0,0-1.24,2.11,10.55,10.55,0,0,0-.94,5,11.2,11.2,0,0,0,1.65,5.12A23.91,23.91,0,0,0,139,66.13c1.08,1.15,2.15,2.19,3,3.23A10.81,10.81,0,0,1,144,72.44c0.36,1,1.15,2.68,1,3.79-0.05.44-.17,1.06-0.32,1.7a49.79,49.79,0,0,1-4.24,5.19c-4.6,4.57-11.54,5-19.62.08A52.39,52.39,0,0,0,104,76.49l0.37-.33a11.17,11.17,0,0,0,2.5-3.59,14.08,14.08,0,0,0,1.06-4.07,29.27,29.27,0,0,0,.16-4,62.47,62.47,0,0,1,0-7.42,18.81,18.81,0,0,1,2.19-6.9l-0.11-.1a8.72,8.72,0,0,0-2.64,2.93,12.9,12.9,0,0,0-1.35,3.75,52.76,52.76,0,0,0-.79,7.67A17.71,17.71,0,0,1,104,71.23a8.65,8.65,0,0,1-1.92,2.51,23.43,23.43,0,0,1-3.91,1.94,47.16,47.16,0,0,0-9.55.26c-11.17,1.44-20.88,8.37-20.88,8.37A56.35,56.35,0,0,1,85.14,66.48c17.07-10.77,21.18-18.76,23.64-26.26,0.32-1,.62-2,0.88-3,0.32-.54.67-1.08,1-1.6A18.54,18.54,0,0,1,115,31.23a9.71,9.71,0,0,1,1.16-.69l0.13-.06,0.17-.08,0.34-.14,0.7-.27a19.42,19.42,0,0,1,3-.77c0.72-.13,1.47-0.23,2.22-0.31L123.27,29a22.61,22.61,0,0,1,6.89,2.16,10.58,10.58,0,0,1,2.78,2A4.83,4.83,0,0,1,134.36,36a6.2,6.2,0,0,1-.69,3.24,25.62,25.62,0,0,1-2,3.25l0.1,0.11a9.64,9.64,0,0,0,3.07-2.62,6.63,6.63,0,0,0,1.42-4.07,6.93,6.93,0,0,0-1.57-4.19,12.79,12.79,0,0,0-3.22-2.82l-0.68-.41c1.21,0,2.43-.1,3.67-0.18A37.57,37.57,0,0,0,142,27.14a19.84,19.84,0,0,0,3.65-1.39,13,13,0,0,0,3.22-2.28,11.72,11.72,0,0,0,3.4-6.69l-0.23-.1a28.08,28.08,0,0,1-2.27,2.7,15.56,15.56,0,0,1-2.55,2.1,15.64,15.64,0,0,1-6,2.29,36.65,36.65,0,0,1-6.78.36c-2.32,0-4.69-.2-7.12-0.29a53.16,53.16,0,0,0-7.52.19,24.78,24.78,0,0,0-3.94.77q-0.5.14-1,.31l-0.5.18-0.25.1-0.28.12a14.18,14.18,0,0,0-2,1.07c-0.42.27-.81,0.56-1.2,0.86a23.45,23.45,0,0,0-4.3-11.74,11.83,11.83,0,0,0-1.57-1.76l0-.08a8.44,8.44,0,0,1-.23-2.37,11.74,11.74,0,0,1,1.39-4.86,15.55,15.55,0,0,1,3.26-4.22A26.64,26.64,0,0,1,112.41,0h-3A13.71,13.71,0,0,0,108,.9a16.43,16.43,0,0,0-4.34,4.39,13.6,13.6,0,0,0-2.27,5.91C96.26,7.54,89.08,3.61,85.18,0H82.52a17.11,17.11,0,0,0,3.94,4.5c8.7,7.18,17.07,12.56,18.22,20.88s-3.73,18.8-14,26.43c-1.61,1.2-3.73,2.52-6.16,4,0,0,6.57-11.74,4.93-21s-9.95-16.57-14-20.63-6.73-13-6.73-13-0.41,11.34,7.55,19.25a21.73,21.73,0,0,1,5,7.85,24.5,24.5,0,0,0-10.44-1.9c-1.86,0-3.51,0-5,.1a4.25,4.25,0,0,1-1.31-.83A7.05,7.05,0,0,1,63,23.07c-0.81-2-1.26-4.43-2-6.84a19,19,0,0,0-1.49-3.59,10.39,10.39,0,0,0-2.6-3.09,8.6,8.6,0,0,0-3.6-1.69,9.56,9.56,0,0,0-3.81,0V8c2.38,0.75,4.59,1.51,6.14,3a11.39,11.39,0,0,1,2.79,5.9c0.24,1.14.45,2.31,0.68,3.52A26.7,26.7,0,0,0,60,24.17a10.93,10.93,0,0,0,1.13,2.4c-3.59.13-5.86,0-8.2-1.45-3.94-2.45-5.26-8-5.26-8s0.5,7,5.92,10.11S67.42,29.71,72.83,30a14.33,14.33,0,0,1,9.91,4.27,33.58,33.58,0,0,1-.89,11.64c-2.63,10.77-17.08,22.9-17.08,22.9h0q-1,.83-2.06,1.69c0.18-1.25.91-7.42-1.54-12.29-2.86-5.69-5.59-6.9-9.78-11.07C47,42.8,46.78,31.9,46.78,31.9S46.39,40.24,48,44.62c2.55,6.78,6.11,6.2,9,15.79,1.79,5.94-.91,16.38-0.91,16.38l0,0a54.29,54.29,0,0,0-6.74,8.93c-0.31.53-.62,1.06-0.93,1.59a64.46,64.46,0,0,0-11.84-12.9c-2.89-4.78-5.95-13.25-1-20.9,4.84-7.5,11.13-7.54,11.13-7.54a19.24,19.24,0,0,0-14.94,7.48c-3.59,4.67-3.62,12.45-3.53,15-3.55-2.48-6.66-4.9-8.76-8.13-1-4.11-1.7-10.58,1.15-15.91,3.38-6.34,9.13-10,11.58-14.48,2.83-5.2,1.11-11.38,1.11-11.38S34.76,27.07,29,31.67,17.68,40,16.81,44.9c0.87-7.63,4.38-12,4.38-18.3,0-8.2-6.28-14.19-6.28-14.19S18.7,18.3,19.5,23.76a11.93,11.93,0,0,0-6.24-5.55C9,16.35,8,11.67,8,11.67s-1.37,4,4.92,8c3.22,2,4.93,6.11,5.75,8.76-0.93,3.32-3,7.23-4.67,11.58-0.36-1.19-.89-2.81-1.57-4.51a25.24,25.24,0,0,0-4.56-7.1,24.74,24.74,0,0,1,2,4.1c1.23,3.19,2.08,5.08,1.43,10.7a43,43,0,0,0,0,9.36h0c0,0.57,0,1.14.1,1.72a19.55,19.55,0,0,0,3.14,8.57,11.08,11.08,0,0,0-10.11-.08A16.7,16.7,0,0,0,0,65.91v2.58a19.34,19.34,0,0,1,3.94-2.26c7-3,15.72,3.19,16.58,3.82C24.79,74.49,30,79,34.86,84.35c6.82,7.51,8,13.43,7.91,16.76q-0.38,1.45-.69,2.94h0A55.74,55.74,0,0,0,41,116.78h0s-1.91-3.25-11-4.36c-2.66-1.37-6.8-4.32-7.51-9.64-1.07-8.07,3-11.91,3-11.91a17.12,17.12,0,0,0-5.66,14.19,11,11,0,0,0,3.26,7,96.31,96.31,0,0,0-11.34.8A27.63,27.63,0,0,1,0,112.07v8.66c2-.24,3.32-0.38,3.32-0.38h0c4.7,0.5,9.55-.06,14.73.17a13,13,0,0,0-7.8,6.35,20.14,20.14,0,0,0-.62,18s-2.79-8.08,2.46-14.26c9.55-11.25,23.52-4.29,24.1-4a27.26,27.26,0,0,1,8.63,11.79c0.23,0.76,9.23,18.5,12.1,25.06,24.26,55.35-23.49,144.61-23.49,144.61H65.21S96.71,228.13,87.32,185.31Z"/>
        <path class="o" d="M9,80.8a21.19,21.19,0,0,0-9-.91v1.89A33,33,0,0,1,9,80.8Z"/>
        <polygon class="o" points="45.57 140.74 45.57 140.74 45.57 140.75 45.57 140.74"/>
      </g>
      <g>
        <path class="c" d="M161,60.54s-3.89,1.21-6.4-1.07a16.87,16.87,0,0,1-3.42-4.53,10.8,10.8,0,0,1-.48-1.08s4.19,0.3,6.26,1.47a10.42,10.42,0,0,1,4,5C161,60.39,161,60.54,161,60.54Z"/>
        <path class="p" d="M161,60.3s-3.89,1.21-6.4-1.07a17,17,0,0,1-3.82-5.36s4.12,0.06,6.18,1.23C159.66,56.65,161,60.3,161,60.3Z"/>
      </g>
      <g>
        <path class="c" d="M172.11,126.11s1.18,7.38,7,9.63a31.13,31.13,0,0,0,11.91,1.9,0.34,0.34,0,0,0,.06-0.36c-0.86-1.16-3.92-6.63-7.11-8.79-4.52-3.06-11.05-2.82-11.78-2.75A1.08,1.08,0,0,0,172.11,126.11Z"/>
        <path class="q" d="M172.17,125.75s1.19,7.38,7,9.63a31.11,31.11,0,0,0,11.91,1.9s-3.44-6.71-7.05-9.15C179.21,124.89,172.17,125.75,172.17,125.75Z"/>
      </g>
      <g>
        <path class="c" d="M231.89,107.77s-0.91,4.31,1.8,6.77a18.35,18.35,0,0,0,6.15,3.57,0.2,0.2,0,0,0,.11-0.19c-0.23-.82-0.75-4.48-2.05-6.34a12.4,12.4,0,0,0-5.9-4A0.65,0.65,0,0,0,231.89,107.77Z"/>
        <path class="r" d="M232,107.58s-0.91,4.31,1.8,6.77a18.33,18.33,0,0,0,6.15,3.57s-0.48-4.42-1.94-6.52C236.06,108.6,232,107.58,232,107.58Z"/>
      </g>
      <g>
        <path class="c" d="M169.45,128s-2.22,2.66-1.24,5.36a14.41,14.41,0,0,0,3,4.74,0.16,0.16,0,0,0,.14-0.09c0.14-.65,1.12-3.39.9-5.16a9.75,9.75,0,0,0-2.62-4.95A0.5,0.5,0,0,0,169.45,128Z"/>
        <path class="s" d="M169.6,127.87s-2.21,2.66-1.24,5.36a14.41,14.41,0,0,0,3,4.74s1.29-3.24,1-5.25A9.22,9.22,0,0,0,169.6,127.87Z"/>
      </g>
      <g>
        <path class="c" d="M195.93,94.22s-1.25,5.95,2.49,9.35a25.31,25.31,0,0,0,8.49,4.92,0.28,0.28,0,0,0,.15-0.26c-0.31-1.13-1-6.18-2.83-8.75-2.54-3.64-7.57-5.37-8.14-5.53A0.87,0.87,0,0,0,195.93,94.22Z"/>
        <path class="t" d="M196.08,94s-1.26,5.95,2.48,9.35a25.33,25.33,0,0,0,8.49,4.92s-0.66-6.1-2.68-9C201.67,95.37,196.08,94,196.08,94Z"/>
      </g>
      <g>
        <path class="c" d="M106.38,122.69s-1.29,6.11,2.55,9.61a26,26,0,0,0,8.73,5.06,0.29,0.29,0,0,0,.15-0.27c-0.32-1.16-1.07-6.35-2.91-9-2.61-3.74-7.78-5.52-8.37-5.68A0.9,0.9,0,0,0,106.38,122.69Z"/>
        <path class="u" d="M106.54,122.43s-1.29,6.11,2.55,9.61a26,26,0,0,0,8.72,5.06s-0.67-6.27-2.76-9.26C112.29,123.88,106.54,122.43,106.54,122.43Z"/>
      </g>
      <g>
        <path class="c" d="M165.11,78.89s2.08,3.88,5.74,4a18.33,18.33,0,0,0,7-1.24,0.2,0.2,0,0,0,0-.21c-0.7-.48-3.46-2.93-5.65-3.52-3.11-.83-6.7.56-7.09,0.75A0.63,0.63,0,0,0,165.11,78.89Z"/>
        <path class="v" d="M165.07,78.67s2.08,3.88,5.74,4a18.34,18.34,0,0,0,7-1.24s-3.21-3.07-5.69-3.73C168.83,76.84,165.07,78.67,165.07,78.67Z"/>
      </g>
      <g>
        <path class="c" d="M250.94,64a11.19,11.19,0,0,0-4.38,2.89c-2.14,2.22-3.09,5.59-8.34,7.56a6.57,6.57,0,0,1-8.09-3.35c-1.42-3.93,1.2-7.28,7.07-9.39,4.89-1.76,11.83,1.12,13.46,1.92A0.56,0.56,0,0,1,250.94,64Z"/>
        <path class="w" d="M250.81,63.67a11.2,11.2,0,0,0-4.38,2.89c-2.14,2.22-3.09,5.59-8.34,7.56A6.57,6.57,0,0,1,230,70.76c-1.42-3.93,1.2-7.28,7.07-9.39C242.66,59.36,250.81,63.67,250.81,63.67Z"/>
      </g>
      <g>
        <path class="c" d="M141.88,158.31a9.94,9.94,0,0,0-2.29-4.05c-1.84-2-4.76-3.08-6.19-7.84a5.83,5.83,0,0,1,3.46-7c3.57-1,6.37,1.5,7.89,6.83,1.26,4.44-1.71,10.41-2.51,11.81A0.5,0.5,0,0,1,141.88,158.31Z"/>
        <path class="x" d="M142.16,158.21a10,10,0,0,0-2.29-4.05c-1.84-2-4.76-3.08-6.19-7.84a5.83,5.83,0,0,1,3.46-7c3.57-1,6.37,1.5,7.89,6.82C146.47,151.25,142.16,158.21,142.16,158.21Z"/>
      </g>
      <g>
        <path class="c" d="M223.41,98.23a4.55,4.55,0,0,0-1.78,1.17c-0.87.9-1.25,2.27-3.38,3.07a2.67,2.67,0,0,1-3.28-1.36c-0.58-1.6.49-3,2.87-3.81,2-.71,4.8.45,5.46,0.78A0.23,0.23,0,0,1,223.41,98.23Z"/>
        <path class="y" d="M223.36,98.1a4.54,4.54,0,0,0-1.78,1.17c-0.87.9-1.26,2.27-3.39,3.07a2.67,2.67,0,0,1-3.28-1.36c-0.58-1.6.49-3,2.87-3.81S223.36,98.1,223.36,98.1Z"/>
      </g>
      <g>
        <path class="c" d="M179.61,112.32a4.54,4.54,0,0,0-1.78,1.17c-0.87.9-1.25,2.27-3.38,3.07a2.67,2.67,0,0,1-3.28-1.36c-0.58-1.6.49-3,2.87-3.81,2-.71,4.8.45,5.46,0.78A0.23,0.23,0,0,1,179.61,112.32Z"/>
        <path class="z" d="M179.56,112.2a4.54,4.54,0,0,0-1.78,1.17c-0.87.9-1.25,2.27-3.38,3.07a2.66,2.66,0,0,1-3.28-1.36c-0.58-1.6.49-3,2.87-3.81S179.56,112.2,179.56,112.2Z"/>
      </g>
      <g>
        <path class="c" d="M233.14,50.19a4.53,4.53,0,0,0-.51,2.06c0,1.25.61,2.52-.42,4.55A2.66,2.66,0,0,1,228.88,58c-1.51-.78-1.64-2.5-0.47-4.75,1-1.87,3.84-2.91,4.55-3.13A0.23,0.23,0,0,1,233.14,50.19Z"/>
        <path class="aa" d="M233,50.14a4.53,4.53,0,0,0-.52,2.07c0,1.25.61,2.52-.41,4.55A2.67,2.67,0,0,1,228.76,58c-1.51-.78-1.64-2.5-0.47-4.75S233,50.14,233,50.14Z"/>
      </g>
      <g>
        <path class="c" d="M85.42,122.18a7,7,0,0,1,3.22-.64c1.93,0,3.84,1.12,7-.31a4.11,4.11,0,0,0,2.12-5.05c-1.1-2.38-3.74-2.71-7.28-1.06-3,1.38-4.79,5.78-5.15,6.81A0.31,0.31,0,0,0,85.42,122.18Z"/>
        <g>
          <path class="ab" d="M89.18,118.26a14.5,14.5,0,0,0-3.54,3.6,7.38,7.38,0,0,1,2.92-.51c1.93,0,3.84,1.13,7-.31a4.16,4.16,0,0,0,2.3-4.47A11.28,11.28,0,0,0,89.18,118.26Z"/>
          <path class="ac" d="M97.9,116.57a2.55,2.55,0,0,0-.18-0.58c-1.1-2.38-3.74-2.71-7.28-1.06-3.37,1.57-5.1,7.07-5.1,7.07l0.3-.13a14.5,14.5,0,0,1,3.54-3.6A11.28,11.28,0,0,1,97.9,116.57Z"/>
        </g>
      </g>
      <g>
        <path class="c" d="M90.1,146.58a11.17,11.17,0,0,1,3.41-4c2.46-1.83,5.91-2.35,8.52-7.29a6.54,6.54,0,0,0-2.29-8.42c-3.71-1.9-7.34.27-10.17,5.8-2.38,4.65-.35,12,0.21,13.59A0.5,0.5,0,0,0,90.1,146.58Z"/>
        <g>
          <path class="ad" d="M91,138a23.08,23.08,0,0,0-.92,8,11.74,11.74,0,0,1,3.16-3.5c2.46-1.83,5.92-2.35,8.52-7.29a6.63,6.63,0,0,0-1.5-7.86C95.91,129.27,92.85,133,91,138Z"/>
          <path class="ae" d="M100.25,127.3a4.12,4.12,0,0,0-.8-0.56c-3.71-1.9-7.35.27-10.17,5.8-2.69,5.27.53,13.87,0.53,13.87a5.1,5.1,0,0,1,.24-0.46,23.08,23.08,0,0,1,.92-8C92.85,133,95.91,129.27,100.25,127.3Z"/>
        </g>
      </g>
      <g>
        <path class="c" d="M105.19,153.53a4.85,4.85,0,0,1,2-1c1.3-.31,2.77.08,4.66-1.45a2.85,2.85,0,0,0,.53-3.76c-1.15-1.4-3-1.15-5.06.57-1.75,1.45-2.19,4.72-2.25,5.47A0.22,0.22,0,0,0,105.19,153.53Z"/>
        <g>
          <path class="af" d="M107,150.24a10.08,10.08,0,0,0-1.74,3,5.12,5.12,0,0,1,1.87-.86c1.3-.31,2.77.08,4.66-1.45a2.88,2.88,0,0,0,.75-3.4A7.82,7.82,0,0,0,107,150.24Z"/>
          <path class="ag" d="M112.56,147.57a1.76,1.76,0,0,0-.22-0.36c-1.15-1.4-3-1.15-5.06.57s-2.17,5.64-2.17,5.64l0.18-.14a10.08,10.08,0,0,1,1.74-3A7.82,7.82,0,0,1,112.56,147.57Z"/>
        </g>
      </g>
      <g>
        <path class="c" d="M180.33,75.53a4.68,4.68,0,0,1,1.92,1.06c1,0.85,1.48,2.23,3.74,2.87a2.75,2.75,0,0,0,3.26-1.67c0.46-1.69-.75-3-3.26-3.68-2.12-.57-4.95.89-5.57,1.26A0.21,0.21,0,0,0,180.33,75.53Z"/>
        <g>
          <path class="ah" d="M183.95,75.15a9.76,9.76,0,0,0-3.36.31,4.94,4.94,0,0,1,1.71,1c1,0.86,1.48,2.23,3.74,2.88a2.78,2.78,0,0,0,3.1-1.3A7.57,7.57,0,0,0,183.95,75.15Z"/>
          <path class="ai" d="M189.14,78a1.64,1.64,0,0,0,.16-0.37c0.46-1.69-.75-3-3.26-3.68s-5.66,1.42-5.66,1.42l0.21,0.06a9.76,9.76,0,0,1,3.36-.31A7.57,7.57,0,0,1,189.14,78Z"/>
        </g>
      </g>
      <g>
        <path class="c" d="M144.71,104.22a4.68,4.68,0,0,1,1,1.94c0.34,1.24,0,2.67,1.56,4.45A2.75,2.75,0,0,0,151,111c1.31-1.16,1-2.92-.72-4.87-1.46-1.64-4.63-2-5.36-2A0.21,0.21,0,0,0,144.71,104.22Z"/>
        <g>
          <path class="aj" d="M148,105.87a9.76,9.76,0,0,0-3-1.58,5,5,0,0,1,.89,1.77c0.34,1.24,0,2.68,1.56,4.45a2.78,2.78,0,0,0,3.31.61A7.56,7.56,0,0,0,148,105.87Z"/>
          <path class="ak" d="M150.72,111.13a1.66,1.66,0,0,0,.34-0.23c1.31-1.16,1-2.92-.72-4.87s-5.52-1.9-5.52-1.9L145,104.3a9.76,9.76,0,0,1,3,1.58A7.56,7.56,0,0,1,150.72,111.13Z"/>
        </g>
      </g>
      <g>
        <path class="c" d="M121.2,140.6a5.72,5.72,0,0,1,2.17-1.57c1.45-.62,3.23-0.47,5.12-2.62a3.35,3.35,0,0,0-.14-4.47c-1.62-1.39-3.69-.74-5.76,1.68-1.74,2-1.6,5.92-1.52,6.8A0.26,0.26,0,0,0,121.2,140.6Z"/>
        <g>
          <path class="al" d="M122.67,136.41a11.89,11.89,0,0,0-1.41,3.87,6,6,0,0,1,2-1.37c1.45-.62,3.23-0.47,5.12-2.62a3.4,3.4,0,0,0,.19-4.1A9.22,9.22,0,0,0,122.67,136.41Z"/>
          <path class="am" d="M128.56,132.19a2.06,2.06,0,0,0-.33-0.37c-1.62-1.39-3.69-.74-5.76,1.68s-1.39,7-1.39,7l0.18-.2a11.89,11.89,0,0,1,1.41-3.87A9.22,9.22,0,0,1,128.56,132.19Z"/>
        </g>
      </g>
      <g>
        <path class="c" d="M123,157.19c2.84-4,.3-8.86.3-8.86a0.38,0.38,0,0,0-.24-0.22,14.8,14.8,0,0,0-4.32.89c-1.77.6-4.66,3-4.32,6.22,0.37,3.46-.47,5.29-0.86,5.82-0.1.14,0.1,0.2,0.1,0.2A10,10,0,0,0,123,157.19Z"/>
        <g>
          <path class="an" d="M121.79,149.11c-1.56,1.32-2.82,2.42-4.27,6.34a14,14,0,0,1-3.89,5.62,9.9,9.9,0,0,0,9.2-4.08c2.83-4,.32-8.82.3-8.86A12.58,12.58,0,0,0,121.79,149.11Z"/>
          <path class="ao" d="M121.79,149.11a12.58,12.58,0,0,1,1.34-1h0a12.07,12.07,0,0,0-4.56.67c-1.77.6-4.66,3-4.32,6.23,0.46,4.35-.7,6-0.7,6h0.09a14,14,0,0,0,3.89-5.62C119,151.52,120.23,150.42,121.79,149.11Z"/>
        </g>
      </g>
      <g>
        <path class="c" d="M84.83,109.28s0.31,5.94-3.82,8.66a24.76,24.76,0,0,1-9,3.47,0.25,0.25,0,0,1-.11-0.27c0.34-1.16,2-5.84,4.07-8C79.21,109.79,84.83,109.28,84.83,109.28Z"/>
        <g>
          <path class="ap" d="M84.73,109v0s-5.62.51-8.81,3.83c-2.4,2.5-4,8.3-4,8.3H72a22.58,22.58,0,0,1,5.22-6.34A73,73,0,0,1,84.73,109Z"/>
          <path class="aq" d="M77.25,114.78A22.58,22.58,0,0,0,72,121.13a24.81,24.81,0,0,0,8.88-3.46c4-2.62,3.84-8.24,3.82-8.63A73,73,0,0,0,77.25,114.78Z"/>
        </g>
      </g>
      <g>
        <path class="c" d="M130.92,112.62s0.27,4.49-2.83,6.57a18.74,18.74,0,0,1-6.75,2.68,0.19,0.19,0,0,1-.08-0.2c0.25-.88,1.45-4.43,3-6.1C126.67,113,130.92,112.62,130.92,112.62Z"/>
        <g>
          <path class="ar" d="M130.84,112.43v0s-4.25.42-6.64,3c-1.8,1.91-2.94,6.3-2.94,6.3h0.06a17.06,17.06,0,0,1,3.9-4.83A55.14,55.14,0,0,1,130.84,112.43Z"/>
          <path class="as" d="M125.22,116.83a17.06,17.06,0,0,0-3.9,4.83A18.77,18.77,0,0,0,128,119c3-2,2.85-6.25,2.83-6.55A55.14,55.14,0,0,0,125.22,116.83Z"/>
        </g>
      </g>
      <g>
        <path class="c" d="M166.6,119.24s-1.5,5.08-5.78,6.14a22.07,22.07,0,0,1-8.55.26,0.22,0.22,0,0,1,0-.26c0.63-.88,3.39-4.33,5.8-5.54C161.72,118,166.6,119.24,166.6,119.24Z"/>
        <g>
          <path class="at" d="M166.58,119v0s-4.88-1.24-8.54.6c-2.76,1.39-5.79,5.8-5.79,5.8h0.07a20.11,20.11,0,0,1,6.27-3.78A65,65,0,0,1,166.58,119Z"/>
          <path class="au" d="M158.59,121.61a20.11,20.11,0,0,0-6.27,3.78,22.12,22.12,0,0,0,8.49-.27c4.13-1,5.67-5.78,5.78-6.12A65,65,0,0,0,158.59,121.61Z"/>
        </g>
      </g>
      <g>
        <path class="c" d="M131.31,83.14s-3.7.51-5.61-1.93a15.54,15.54,0,0,1-2.64-5.42,0.16,0.16,0,0,1,.16-0.08,15.12,15.12,0,0,1,5.23,2.12C130.69,79.65,131.31,83.14,131.31,83.14Z"/>
        <g>
          <path class="av" d="M131.46,83.06h0s-0.61-3.49-2.86-5.31c-1.69-1.37-5.39-2-5.39-2v0a14.15,14.15,0,0,1,4.24,2.93A46,46,0,0,1,131.46,83.06Z"/>
          <path class="aw" d="M127.47,78.69a14.15,14.15,0,0,0-4.24-2.93,15.57,15.57,0,0,0,2.63,5.37c1.85,2.35,5.35,2,5.6,1.94A46,46,0,0,0,127.47,78.69Z"/>
        </g>
      </g>
      <g>
        <path class="c" d="M240.43,106.91c-5.46-1.7-7.29-7.51-7.74-9.3a2,2,0,0,1,0-.7A16.09,16.09,0,0,1,237.84,94c2.44-.9,7.84-1,10.23,3,2.72,4.57,5.24,5.57,5.88,5.87a0.46,0.46,0,0,1,0,.38S248.59,109.46,240.43,106.91Z"/>
        <g>
          <path class="ax" d="M253.77,103l0.18-.18s-2.69-.84-5.89-6c-2.38-3.8-7.54-3.94-10-3.08a17,17,0,0,0-5.43,3.07,19,19,0,0,1,8.1,2.5C245.51,102.09,250,103.3,253.77,103Z"/>
          <path class="ay" d="M240.76,99.4a19,19,0,0,0-8.1-2.5l-0.09.08s1.38,7.44,7.86,9.36a13.64,13.64,0,0,0,13.35-3.3C250,103.3,245.51,102.09,240.76,99.4Z"/>
        </g>
      </g>
      <g>
        <path class="c" d="M214.33,70.14c-4.48,4.76-11.38,3.74-13.44,3.3a2.37,2.37,0,0,1-.74-0.32,18.41,18.41,0,0,1-.38-6.78c0.29-3,2.89-8.57,8.19-9,6.06-.51,8.36-2.6,9-3.11a0.52,0.52,0,0,1,.4.19S221,63,214.33,70.14Z"/>
        <g>
          <path class="az" d="M217,54.48l-0.1-.28s-2.21,2.34-9.07,3.08c-5.1.54-7.82,5.79-8.16,8.72a19.46,19.46,0,0,0,.44,7.12A21.71,21.71,0,0,1,206.78,66C211.92,62.5,215.43,58.45,217,54.48Z"/>
          <path class="ba" d="M206.78,66a21.71,21.71,0,0,0-6.63,7.08l0,0.14s8.34,2.3,13.56-3.4A15.6,15.6,0,0,0,217,54.48C215.43,58.45,211.92,62.5,206.78,66Z"/>
        </g>
      </g>
      <g>
        <path class="c" d="M175.14,59.75c-2.82,3-7.18,2.36-8.48,2.08a1.48,1.48,0,0,1-.47-0.2,11.62,11.62,0,0,1-.24-4.28c0.19-1.86,1.82-5.41,5.17-5.69,3.82-.32,5.27-1.64,5.66-2a0.33,0.33,0,0,1,.25.12A9.59,9.59,0,0,1,175.14,59.75Z"/>
        <g>
          <path class="bb" d="M176.84,49.88l-0.06-.17s-1.4,1.48-5.72,1.94c-3.22.34-4.94,3.65-5.15,5.5a12.31,12.31,0,0,0,.28,4.49,13.7,13.7,0,0,1,4.18-4.47A17.37,17.37,0,0,0,176.84,49.88Z"/>
          <path class="bc" d="M170.37,57.16a13.7,13.7,0,0,0-4.18,4.47l0,0.09s5.26,1.45,8.55-2.14a9.84,9.84,0,0,0,2.08-9.7A17.37,17.37,0,0,1,170.37,57.16Z"/>
        </g>
      </g>
      <g>
        <path class="c" d="M129.49,20c3.92,3.94,9.85,2,9.85,2a13.69,13.69,0,0,0,.12-5.23c-0.33-2.1-2.45-5.78-6.13-6-4.95-.32-6.61-1.93-6.61-1.93A11.25,11.25,0,0,0,129.49,20Z"/>
        <path class="bd" d="M129.58,19.56c3.92,3.94,9.85,2,9.85,2a13.7,13.7,0,0,0,.12-5.23c-0.33-2.1-2.45-5.78-6.13-6-5-.32-6.61-1.93-6.61-1.93A11.25,11.25,0,0,0,129.58,19.56Z"/>
      </g>
      <g>
        <path class="be" d="M116.6,21.43s-3.87-1.27-4.59-4.59a16.85,16.85,0,0,1-.16-5.67,10.88,10.88,0,0,1,.23-1.15s3.24,2.68,4.24,4.83a10.42,10.42,0,0,1,.34,6.34C116.65,21.28,116.6,21.43,116.6,21.43Z"/>
        <path class="bf" d="M116.67,21.19s-3.87-1.27-4.59-4.59a17,17,0,0,1,0-6.58s3.32,2.43,4.32,4.59C117.74,17.47,116.67,21.19,116.67,21.19Z"/>
      </g>
      <g>
        <path class="c" d="M122.25,14.78a4,4,0,0,0-1.73,3.15,9.42,9.42,0,0,0,1,3.5,0.11,0.11,0,0,0,.11,0,10.69,10.69,0,0,0,1.48-3.08,6.37,6.37,0,0,0-.77-3.57A0.34,0.34,0,0,0,122.25,14.78Z"/>
        <path class="bg" d="M122.36,14.75a4,4,0,0,0-1.73,3.15,9.4,9.4,0,0,0,1,3.5,9.21,9.21,0,0,0,1.59-3.11A6,6,0,0,0,122.36,14.75Z"/>
      </g>
      <g>
        <path class="c" d="M132.13,43.61a4,4,0,0,0-1.73,3.15,9.42,9.42,0,0,0,1,3.5,0.1,0.1,0,0,0,.11,0A10.69,10.69,0,0,0,133,47.16a6.37,6.37,0,0,0-.77-3.57A0.33,0.33,0,0,0,132.13,43.61Z"/>
        <path class="bh" d="M132.24,43.58a4,4,0,0,0-1.73,3.15,9.39,9.39,0,0,0,1,3.5,9.22,9.22,0,0,0,1.59-3.11A6,6,0,0,0,132.24,43.58Z"/>
      </g>
      <g>
        <path class="c" d="M162.94,67.28a4,4,0,0,0,1.89,3.06,9.41,9.41,0,0,0,3.55.84,0.1,0.1,0,0,0,0-.11,10.7,10.7,0,0,0-1.94-2.81,6.37,6.37,0,0,0-3.49-1.1A0.31,0.31,0,0,0,162.94,67.28Z"/>
        <path class="bi" d="M163,67.17a4,4,0,0,0,1.88,3.06,9.39,9.39,0,0,0,3.55.84,9.2,9.2,0,0,0-1.92-2.92A6,6,0,0,0,163,67.17Z"/>
      </g>
      <g>
        <path class="c" d="M138.44,31s1.89,4,5.56,4.32a18.44,18.44,0,0,0,7.09-.89,0.2,0.2,0,0,0,0-.21c-0.68-.52-3.33-3.12-5.5-3.82-3.08-1-6.75.22-7.15,0.39A0.63,0.63,0,0,0,138.44,31Z"/>
        <path class="bj" d="M138.42,30.78s1.89,4,5.56,4.32a18.42,18.42,0,0,0,7.09-.89s-3.07-3.25-5.52-4C142.28,29.12,138.42,30.78,138.42,30.78Z"/>
      </g>
      <g>
        <path class="c" d="M174.53,18.16a10.71,10.71,0,0,0-4.38,2.45c-2.19,2-3.34,5.11-8.47,6.62a6.28,6.28,0,0,1-7.48-3.76c-1.08-3.85,1.65-6.86,7.39-8.46,4.79-1.34,11.19,1.89,12.7,2.76A0.54,0.54,0,0,1,174.53,18.16Z"/>
        <path class="bk" d="M174.43,17.87a10.7,10.7,0,0,0-4.37,2.45c-2.19,2-3.34,5.11-8.48,6.62a6.28,6.28,0,0,1-7.48-3.76c-1.08-3.85,1.65-6.86,7.39-8.46C167,13.19,174.43,17.87,174.43,17.87Z"/>
      </g>
      <g>
        <path class="c" d="M153.48,46.68a7.53,7.53,0,0,0-3,1.94c-1.44,1.5-2.08,3.77-5.62,5.09a4.43,4.43,0,0,1-5.45-2.26c-1-2.65.81-4.91,4.76-6.33,3.3-1.19,8,.75,9.07,1.29A0.38,0.38,0,0,1,153.48,46.68Z"/>
        <path class="bl" d="M153.39,46.48a7.53,7.53,0,0,0-3,1.94c-1.44,1.5-2.08,3.77-5.62,5.09a4.43,4.43,0,0,1-5.45-2.26c-1-2.65.81-4.91,4.76-6.33C147.9,43.58,153.39,46.48,153.39,46.48Z"/>
      </g>
      <g>
        <path class="c" d="M116.59,41.83a6.72,6.72,0,0,1,2.83-1.38c1.8-.43,3.83.1,6.45-2a3.94,3.94,0,0,0,.73-5.21c-1.6-1.94-4.13-1.6-7,.79-2.42,2-3,6.54-3.12,7.58A0.3,0.3,0,0,0,116.59,41.83Z"/>
        <g>
          <path class="bm" d="M119.13,37.27a14,14,0,0,0-2.41,4.2,7.1,7.1,0,0,1,2.58-1.19c1.8-.43,3.83.11,6.45-2a4,4,0,0,0,1-4.71A10.84,10.84,0,0,0,119.13,37.27Z"/>
          <path class="bn" d="M126.8,33.56a2.43,2.43,0,0,0-.31-0.5c-1.6-1.94-4.13-1.6-7,.79s-3,7.81-3,7.81l0.24-.2a14,14,0,0,1,2.41-4.2A10.84,10.84,0,0,1,126.8,33.56Z"/>
        </g>
      </g>
      <g>
        <path class="c" d="M35.1,38c1.27,4.22,6.13,5.09,6.13,5.09a10.84,10.84,0,0,0,2-3.61c0.55-1.59.45-5-2-6.49-3.34-2.07-3.9-3.82-3.9-3.82A8.91,8.91,0,0,0,35.1,38Z"/>
        <path class="bo" d="M35.34,37.67c1.27,4.21,6.13,5.09,6.13,5.09a10.85,10.85,0,0,0,2-3.61c0.55-1.59.45-5-2-6.49-3.34-2.07-3.9-3.82-3.9-3.82A8.91,8.91,0,0,0,35.34,37.67Z"/>
      </g>
      <g>
        <path class="c" d="M97.69,22a4,4,0,0,0,.92,3.47,9.41,9.41,0,0,0,3.15,1.83,0.1,0.1,0,0,0,.06-0.1A10.68,10.68,0,0,0,100.77,24a6.37,6.37,0,0,0-3-2.05A0.33,0.33,0,0,0,97.69,22Z"/>
        <path class="bp" d="M97.74,21.92a4,4,0,0,0,.92,3.47,9.4,9.4,0,0,0,3.15,1.83,9.2,9.2,0,0,0-1-3.35A6,6,0,0,0,97.74,21.92Z"/>
      </g>
      <g>
        <path class="c" d="M93.06,37.23a5.18,5.18,0,0,1,2.37-.48c1.42,0,2.83.83,5.19-.23a3,3,0,0,0,1.56-3.73c-0.81-1.75-2.76-2-5.37-.79-2.19,1-3.54,4.26-3.8,5A0.23,0.23,0,0,0,93.06,37.23Z"/>
        <g>
          <path class="bq" d="M95.84,34.34A10.7,10.7,0,0,0,93.23,37a5.46,5.46,0,0,1,2.15-.38c1.42,0,2.83.83,5.19-.23a3.07,3.07,0,0,0,1.7-3.3A8.33,8.33,0,0,0,95.84,34.34Z"/>
          <path class="br" d="M102.27,33.09a1.91,1.91,0,0,0-.13-0.43c-0.81-1.75-2.76-2-5.37-.78S93,37.09,93,37.09l0.22-.1a10.7,10.7,0,0,1,2.61-2.65A8.33,8.33,0,0,1,102.27,33.09Z"/>
        </g>
      </g>
      <g>
        <path class="c" d="M68.9,44.18a4.54,4.54,0,0,1,2.09.38c1.15,0.49,2,1.59,4.31,1.5a2.66,2.66,0,0,0,2.48-2.53c-0.09-1.69-1.6-2.52-4.12-2.38-2.12.12-4.27,2.33-4.73,2.86A0.2,0.2,0,0,0,68.9,44.18Z"/>
        <g>
          <path class="bs" d="M72.11,42.72a9.41,9.41,0,0,0-3,1.32,4.78,4.78,0,0,1,1.88.39c1.15,0.49,2,1.59,4.31,1.5a2.69,2.69,0,0,0,2.45-2.14A7.31,7.31,0,0,0,72.11,42.72Z"/>
          <path class="bt" d="M77.75,43.78a1.61,1.61,0,0,0,0-.39c-0.09-1.69-1.6-2.52-4.12-2.38s-4.76,3-4.76,3h0.21a9.41,9.41,0,0,1,3-1.32A7.31,7.31,0,0,1,77.75,43.78Z"/>
        </g>
      </g>
      <g>
        <path class="c" d="M63.52,15.83a5.73,5.73,0,0,1,2.1,1.67c1,1.23,1.32,3,3.9,4.23a3.35,3.35,0,0,0,4.27-1.34c0.9-1.94-.28-3.76-3.17-5.1-2.43-1.13-6.13.05-7,.37A0.25,0.25,0,0,0,63.52,15.83Z"/>
        <g>
          <path class="bu" d="M67.94,16.12a11.85,11.85,0,0,0-4.11-.32,6,6,0,0,1,1.85,1.55c1,1.23,1.32,3,3.9,4.23a3.39,3.39,0,0,0,4-.92A9.21,9.21,0,0,0,67.94,16.12Z"/>
          <path class="bv" d="M73.59,20.66a2,2,0,0,0,.27-0.42c0.9-1.93-.28-3.76-3.17-5.1s-7.09.54-7.09,0.54l0.24,0.11a11.85,11.85,0,0,1,4.11.32A9.21,9.21,0,0,1,73.59,20.66Z"/>
        </g>
      </g>
      <g>
        <path class="c" d="M77.65,13.46a7.89,7.89,0,0,1,3.56,1c1.91,1,3.27,3.09,7.22,3.28a4.62,4.62,0,0,0,4.71-4c0.11-2.94-2.37-4.62-6.75-4.78-3.69-.13-7.76,3.35-8.64,4.2A0.35,0.35,0,0,0,77.65,13.46Z"/>
        <g>
          <path class="bw" d="M83.43,11.45A16.34,16.34,0,0,0,78,13.25a8.31,8.31,0,0,1,3.19,1c1.91,1,3.27,3.09,7.22,3.28A4.68,4.68,0,0,0,93,14.2,12.71,12.71,0,0,0,83.43,11.45Z"/>
          <path class="bx" d="M93,14.2a2.83,2.83,0,0,0,.12-0.67c0.11-2.94-2.37-4.63-6.75-4.78-4.18-.15-8.72,4.49-8.72,4.49l0.37,0a16.34,16.34,0,0,1,5.39-1.8A12.71,12.71,0,0,1,93,14.2Z"/>
        </g>
      </g>
      <g>
        <path class="c" d="M46.1,17s-4.84,2.71-8.82.37a23.1,23.1,0,0,1-6.59-6.06,0.24,0.24,0,0,1,.18-0.2c1.11-.2,5.7-0.76,8.39.09C43.35,12.48,46.1,17,46.1,17Z"/>
        <g>
          <path class="by" d="M46.26,16.78h0S43.54,12.28,39.44,11c-3.08-1-8.58.11-8.58,0.11l0,0.06a21,21,0,0,1,7.46,1.75A68.15,68.15,0,0,1,46.26,16.78Z"/>
          <path class="bz" d="M38.37,12.89a21,21,0,0,0-7.46-1.75,23.15,23.15,0,0,0,6.55,6c3.84,2.25,8.47-.18,8.8-0.36A68.15,68.15,0,0,0,38.37,12.89Z"/>
        </g>
      </g>
      <g>
        <path class="c" d="M78.28,50.06s-1.63,4.89-5.83,5.77a21.46,21.46,0,0,1-8.32,0,0.22,0.22,0,0,1,0-.25c0.64-.83,3.44-4.09,5.82-5.18C73.59,48.69,78.28,50.06,78.28,50.06Z"/>
        <g>
          <path class="ca" d="M78.28,49.83v0s-4.69-1.37-8.32.29c-2.73,1.25-5.83,5.43-5.83,5.43l0.07,0a19.53,19.53,0,0,1,6.22-3.46A63.3,63.3,0,0,1,78.28,49.83Z"/>
          <path class="cb" d="M70.42,52.09a19.53,19.53,0,0,0-6.22,3.46,21.52,21.52,0,0,0,8.25,0c4-.85,5.71-5.43,5.82-5.75A63.3,63.3,0,0,0,70.42,52.09Z"/>
        </g>
      </g>
      <g>
        <path class="c" d="M19,131.46s3.28,5.37,8.51,5.28a26.2,26.2,0,0,0,9.89-2.32,0.29,0.29,0,0,0-.07-0.3c-1-.63-5.17-3.92-8.35-4.58-4.5-.94-9.52,1.33-10.06,1.62A0.89,0.89,0,0,0,19,131.46Z"/>
        <path class="cc" d="M19,131.16s3.28,5.37,8.51,5.28a26.21,26.21,0,0,0,9.89-2.32s-4.83-4.13-8.42-4.88C24.17,128.25,19,131.16,19,131.16Z"/>
      </g>
      <g>
        <path class="c" d="M13.47,139.94s0.51,3.16,3,4.12a13.34,13.34,0,0,0,5.1.81,0.15,0.15,0,0,0,0-.16c-0.37-.5-1.68-2.84-3-3.76a9,9,0,0,0-5-1.17A0.45,0.45,0,0,0,13.47,139.94Z"/>
        <path class="cd" d="M13.5,139.78s0.51,3.16,3,4.12a13.32,13.32,0,0,0,5.1.81s-1.48-2.87-3-3.92A8.52,8.52,0,0,0,13.5,139.78Z"/>
      </g>
      <g>
        <path class="c" d="M11.54,148.93s-3,5.3-.41,9.65a25.28,25.28,0,0,0,6.63,7.21,0.28,0.28,0,0,0,.22-0.2c0-1.17.84-6.2-.1-9.18-1.34-4.23-5.62-7.37-6.12-7.68A0.86,0.86,0,0,0,11.54,148.93Z"/>
        <path class="ce" d="M11.76,148.73s-3,5.3-.41,9.65A25.27,25.27,0,0,0,18,165.59s1.19-6,.12-9.38C16.68,151.73,11.76,148.73,11.76,148.73Z"/>
      </g>
      <g>
        <path class="c" d="M8.79,91.39a10.29,10.29,0,0,1,4.12-2.49c2.68-.89,5.85-0.35,9.56-3.92a6,6,0,0,0,.42-8c-2.69-2.73-6.5-1.89-10.57,2.14C8.9,82.49,8.57,89.46,8.59,91.05A0.46,0.46,0,0,0,8.79,91.39Z"/>
        <g>
          <path class="cf" d="M12,84.11a21.29,21.29,0,0,0-3.11,6.72,10.85,10.85,0,0,1,3.78-2.15c2.68-.89,5.85-0.35,9.56-3.92a6.1,6.1,0,0,0,1-7.31C18.86,77.92,15.12,80.27,12,84.11Z"/>
          <path class="cg" d="M23.23,77.45a3.65,3.65,0,0,0-.53-0.72C20,74,16.19,74.85,12.12,78.87,8.24,82.71,8.59,91.16,8.59,91.16s0.12-.13.34-0.33A21.29,21.29,0,0,1,12,84.11C15.12,80.27,18.86,77.92,23.23,77.45Z"/>
        </g>
      </g>
      <g>
        <path class="c" d="M25.43,45.79a4.54,4.54,0,0,1,2.09.38c1.15,0.49,2,1.59,4.31,1.5a2.66,2.66,0,0,0,2.48-2.53c-0.09-1.69-1.6-2.52-4.12-2.38-2.12.12-4.27,2.33-4.73,2.86A0.2,0.2,0,0,0,25.43,45.79Z"/>
        <g>
          <path class="ch" d="M28.63,44.33a9.4,9.4,0,0,0-3,1.32,4.77,4.77,0,0,1,1.88.39c1.15,0.49,2,1.59,4.31,1.5a2.69,2.69,0,0,0,2.45-2.14A7.31,7.31,0,0,0,28.63,44.33Z"/>
          <path class="ci" d="M34.28,45.39a1.59,1.59,0,0,0,0-.39c-0.09-1.69-1.6-2.52-4.12-2.38s-4.76,3-4.76,3h0.21a9.4,9.4,0,0,1,3-1.32A7.31,7.31,0,0,1,34.28,45.39Z"/>
        </g>
      </g>
      <g>
        <path class="c" d="M18.49,107.58s-4.69.43-7-2.76a19.62,19.62,0,0,1-3-7,0.2,0.2,0,0,1,.21-0.09c0.93,0.23,4.68,1.38,6.47,3C17.92,103.14,18.49,107.58,18.49,107.58Z"/>
        <g>
          <path class="cj" d="M18.68,107.49h0s-0.57-4.43-3.3-6.85c-2.05-1.82-6.68-2.88-6.68-2.88v0.06a17.87,17.87,0,0,1,5.18,3.93A57.76,57.76,0,0,1,18.68,107.49Z"/>
          <path class="ck" d="M13.91,101.74a17.87,17.87,0,0,0-5.18-3.93,19.65,19.65,0,0,0,3,6.92c2.2,3.07,6.63,2.79,6.95,2.76A57.76,57.76,0,0,0,13.91,101.74Z"/>
        </g>
      </g>
      <g>
        <path class="c" d="M113.79,92.53s2,4,0,7.16a18.72,18.72,0,0,1-5.17,5.1,0.19,0.19,0,0,1-.15-0.16c-0.12-.91-0.39-4.65.41-6.79C110,94.58,113.79,92.53,113.79,92.53Z"/>
        <g>
          <path class="cl" d="M113.64,92.39v0s-3.75,2-5,5.31c-0.91,2.46-.25,6.95-0.25,6.95l0,0a17.07,17.07,0,0,1,1.71-6A55,55,0,0,1,113.64,92.39Z"/>
          <path class="cm" d="M110.18,98.63a17.07,17.07,0,0,0-1.71,6,18.76,18.76,0,0,0,5.12-5.07c2-3,.18-6.87.05-7.14A55,55,0,0,0,110.18,98.63Z"/>
        </g>
      </g>
      <g>
        <path class="c" d="M108.49,91.36s-2.25,4.8-6.63,5.21a22.07,22.07,0,0,1-8.5-1,0.22,0.22,0,0,1,0-.26c0.75-.77,4-3.77,6.56-4.61C103.85,89.41,108.49,91.36,108.49,91.36Z"/>
        <g>
          <path class="cn" d="M108.51,91.12v0s-4.64-2-8.54-.68c-2.94,1-6.59,4.87-6.59,4.87l0.07,0a20.1,20.1,0,0,1,6.76-2.8A65,65,0,0,1,108.51,91.12Z"/>
          <path class="co" d="M100.21,92.51a20.1,20.1,0,0,0-6.76,2.8,22.12,22.12,0,0,0,8.43,1c4.23-.39,6.47-4.87,6.63-5.19A65,65,0,0,0,100.21,92.51Z"/>
        </g>
      </g>
      <g>
        <path class="c" d="M52.42,73.5s-4.46.61-6.77-2.33a18.73,18.73,0,0,1-3.18-6.53,0.19,0.19,0,0,1,.2-0.1c0.9,0.18,4.53,1.12,6.31,2.56C51.68,69.29,52.42,73.5,52.42,73.5Z"/>
        <g>
          <path class="cp" d="M52.6,73.4h0S51.87,69.2,49.17,67c-2-1.65-6.5-2.46-6.5-2.46V64.6a17.05,17.05,0,0,1,5.11,3.53A55.26,55.26,0,0,1,52.6,73.4Z"/>
          <path class="cq" d="M47.79,68.13a17.05,17.05,0,0,0-5.11-3.53,18.77,18.77,0,0,0,3.17,6.47c2.23,2.84,6.45,2.37,6.75,2.33A55.26,55.26,0,0,0,47.79,68.13Z"/>
        </g>
      </g>
      <g>
        <path class="c" d="M38.82,92.52S37.19,97.41,33,98.29a21.47,21.47,0,0,1-8.32,0,0.22,0.22,0,0,1,0-.25c0.64-.83,3.44-4.09,5.82-5.18C34.13,91.15,38.82,92.52,38.82,92.52Z"/>
        <g>
          <path class="cr" d="M38.82,92.29v0s-4.69-1.37-8.32.3C27.77,93.82,24.68,98,24.68,98l0.07,0A19.53,19.53,0,0,1,31,94.55,63.36,63.36,0,0,1,38.82,92.29Z"/>
          <path class="cs" d="M31,94.55A19.53,19.53,0,0,0,24.74,98,21.52,21.52,0,0,0,33,98c4-.85,5.71-5.42,5.82-5.75A63.36,63.36,0,0,0,31,94.55Z"/>
        </g>
      </g>
      <g>
        <path class="c" d="M53,38.22a4.53,4.53,0,0,1,1.47-1.53c1-.69,2.46-0.82,3.63-2.76a2.66,2.66,0,0,0-.73-3.47c-1.46-.86-3-0.06-4.26,2.12-1.07,1.83-.42,4.84-0.23,5.52A0.2,0.2,0,0,0,53,38.22Z"/>
        <g>
          <path class="ct" d="M53.56,34.74A9.41,9.41,0,0,0,53,38a4.76,4.76,0,0,1,1.37-1.35c1-.69,2.46-0.82,3.63-2.76a2.69,2.69,0,0,0-.42-3.23A7.31,7.31,0,0,0,53.56,34.74Z"/>
          <path class="cu" d="M57.57,30.63a1.59,1.59,0,0,0-.31-0.25c-1.46-.86-3-0.06-4.26,2.12s-0.11,5.64-.11,5.64A2.11,2.11,0,0,1,53,38a9.41,9.41,0,0,1,.56-3.22A7.31,7.31,0,0,1,57.57,30.63Z"/>
        </g>
      </g>
      <g>
        <path class="c" d="M63.44,32.05s3.17,4.06,1.58,8A21.46,21.46,0,0,1,60.38,47a0.22,0.22,0,0,1-.21-0.14c-0.34-1-1.5-5.13-1.09-7.72C59.7,35.2,63.44,32.05,63.44,32.05Z"/>
        <g>
          <path class="cv" d="M63.25,31.93v0s-3.74,3.15-4.36,7.1c-0.46,3,1.3,7.86,1.3,7.86l0,0a19.56,19.56,0,0,1,.56-7.1A63.35,63.35,0,0,1,63.25,31.93Z"/>
          <path class="cw" d="M60.78,39.72a19.56,19.56,0,0,0-.56,7.1A21.5,21.5,0,0,0,64.81,40c1.53-3.84-1.36-7.75-1.57-8A63.35,63.35,0,0,0,60.78,39.72Z"/>
        </g>
      </g>
      <g>
        <path class="c" d="M128,65.4s-1.26,5.95,2.48,9.35A25.33,25.33,0,0,0,139,79.67a0.28,0.28,0,0,0,.15-0.26c-0.31-1.13-1-6.18-2.83-8.75-2.54-3.64-7.57-5.37-8.14-5.52A0.87,0.87,0,0,0,128,65.4Z"/>
        <path class="cx" d="M128.17,65.14s-1.25,5.95,2.49,9.35a25.33,25.33,0,0,0,8.49,4.92s-0.66-6.1-2.68-9C133.77,66.55,128.17,65.14,128.17,65.14Z"/>
      </g>
      <g>
        <path class="c" d="M109.49,62.61s2.08,3.88,5.74,4a18.34,18.34,0,0,0,7-1.24,0.2,0.2,0,0,0,0-.21c-0.7-.48-3.46-2.93-5.66-3.52-3.11-.83-6.7.56-7.09,0.75A0.64,0.64,0,0,0,109.49,62.61Z"/>
        <path class="cy" d="M109.45,62.39s2.08,3.88,5.74,4a18.32,18.32,0,0,0,7-1.24S119,62.1,116.5,61.44C113.21,60.56,109.45,62.39,109.45,62.39Z"/>
      </g>
      <text class="cz" transform="translate(95.91 291.23)">CSS</text>
    </g>
  </g>
</svg>
