<svg id="Layer_1" data-name="Layer 1" xmlns="http://www.w3.org/2000/svg" xmlns:xlink="http://www.w3.org/1999/xlink" viewBox="0 0 308.1 308.1"><defs><style>.cls-1{fill:url(#radial-gradient);}.cls-2{fill:#fff;}.cls-3{isolation:isolate;}</style><radialGradient id="radial-gradient" cx="156" cy="193.5" r="186.2" gradientTransform="matrix(1, 0, 0, -1, 0, 310)" gradientUnits="userSpaceOnUse"><stop offset="0" stop-color="#87c039"/><stop offset="0.9" stop-color="#a2c43c"/></radialGradient></defs><rect class="cls-1" width="308.1" height="308.1"/><path class="cls-2" d="M87.3,185.3c-7.5-34.5-15-36-22-58a40.07,40.07,0,0,1-1.6-8.4c1.8-4,7-12.7,17.7-13.2a21.21,21.21,0,0,1,15,4.4c5.9,4.4,6,18,6,18s1-.7,1-7.3-2.6-9.2-2.6-9.2l3.8,2.3c6.8,4.3,13.9,0,13.9,0s-5.6,1.4-13-2.3c-7-3.6-11.7-11.1-24.6-12a20,20,0,0,0-16,5.8c2.7-8.5,9.7-13.7,19-17.4a37.2,37.2,0,0,1,47.8,47.5c-3.7,9.1-13.7,11-13.7,11A20.3,20.3,0,0,0,135.2,134a37.77,37.77,0,0,0,2.6-15.3,9.8,9.8,0,0,0,6.7,1.4c5.5-1,9.5-4.8,10.8-6.1l1.7-1.6a9.37,9.37,0,0,1,3.5.2,11.24,11.24,0,0,1,4.6,2.4,13.15,13.15,0,0,1,3.2,4.2,40.55,40.55,0,0,1,2,5.1,11.1,11.1,0,0,0-.7-5.7,14.51,14.51,0,0,0-3.2-5,12.82,12.82,0,0,0-5.3-3.1,11,11,0,0,0-1.6-.4,20.22,20.22,0,0,1,3.8-2.9,14.9,14.9,0,0,1,14.4,1.8c-.7-.6-3-2.8-5.1-3.6a14.45,14.45,0,0,0-10.3-.2c-2,.7-7,4.7-8.4,5.8a18.64,18.64,0,0,1-9.6,4.4c-2.3.3-4.8-1.3-7-3.1a36.9,36.9,0,0,0-3.5-11.6l-1.7-2.8a57.24,57.24,0,0,0,10.9,2.5,59.74,59.74,0,0,0,17.3-.7,94.56,94.56,0,0,0,14.8-3.9l6.5-1.1c5.4-1,13.6-3.1,21.9-1.8a10.63,10.63,0,0,1,5,2.3,11.54,11.54,0,0,1,3.5,4.7,16,16,0,0,1,1,6.2,13.8,13.8,0,0,0,.4-6.6,12.31,12.31,0,0,0-3-6.2,13.1,13.1,0,0,0-2.2-1.8h2.2a40.23,40.23,0,0,1,9.4,1.2,18.94,18.94,0,0,1,4.4,1.8,12.38,12.38,0,0,1,3.6,3,11.61,11.61,0,0,1,2.1,4.2,17.65,17.65,0,0,1,.6,4.8,16.45,16.45,0,0,0-.2-5,12.36,12.36,0,0,0-1.9-4.5,13.47,13.47,0,0,0-3.6-3.5,19.77,19.77,0,0,0-4.5-2.2,39,39,0,0,0-9.8-1.9,82,82,0,0,0-8.3-.1c-1.6-.2-9.2.6-11.4.9h-.2l1-.4A147.6,147.6,0,0,1,206.4,85a53.55,53.55,0,0,1,15-2,40.49,40.49,0,0,1,14.5,3.3,53.76,53.76,0,0,1,7,3.6l6.9,4.1a39.46,39.46,0,0,0-12-11.3,35.78,35.78,0,0,0-7.7-3.6,40.72,40.72,0,0,0-8.4-1.6l-1.2-.2,1.4-1.4a30.87,30.87,0,0,0,5.1-7.6,21.78,21.78,0,0,0,1.6-4.3,22.81,22.81,0,0,0,.2-4.6,26.26,26.26,0,0,1-1.5,4.2,38.47,38.47,0,0,1-1.9,3.8,30.66,30.66,0,0,1-5.3,6.8,23.66,23.66,0,0,1-3.9,3,67.09,67.09,0,0,0-11.3,1.2A147.75,147.75,0,0,0,189,82.5l-15.2,4.8-7.6,2s-5,1-7.4,1.4a52.84,52.84,0,0,1-14.7.2,37.71,37.71,0,0,1-3.8-.8l1-.6c8-5.8,11-18.3,17.4-22,8.3-4.7,13-.7,13-.7s-5.6-5-14.6-1.4c-2.6,1-5.2,3.5-7.6,6.3a11.66,11.66,0,0,0-.5-1.4,15,15,0,0,0-3.3-4.4l-3.6-3c-2.3-2-4-3.7-4.6-6.2a12.2,12.2,0,0,1,0-4l.3-2.1.4-2.6-.2.1a10.52,10.52,0,0,0-1.6,1.8,12.12,12.12,0,0,0-1.2,2.1,10.53,10.53,0,0,0-1,5,11.2,11.2,0,0,0,1.7,5.2,24,24,0,0,0,3.1,4l3,3.2a10.78,10.78,0,0,1,2,3,10.21,10.21,0,0,1,1,3.8l-.3,1.7a48.64,48.64,0,0,1-4.3,5.2c-4.6,4.6-11.5,5-19.6.1A52.31,52.31,0,0,0,104,76.5l.4-.3a11.26,11.26,0,0,0,2.5-3.6,13.83,13.83,0,0,0,1-4.1,29.69,29.69,0,0,0,.2-4,60.9,60.9,0,0,1,0-7.4,18.79,18.79,0,0,1,2.2-7h-.1a8.64,8.64,0,0,0-2.7,3,12.84,12.84,0,0,0-1.3,3.7,52.38,52.38,0,0,0-.8,7.6,17.64,17.64,0,0,1-1.4,6.8,8.65,8.65,0,0,1-2,2.5,23.33,23.33,0,0,1-3.8,2,47.38,47.38,0,0,0-9.6.2,52.59,52.59,0,0,0-20.9,8.4A56.33,56.33,0,0,1,85.1,66.5c17.1-10.8,21.2-18.8,23.7-26.3l.9-3,1-1.6a18.52,18.52,0,0,1,4.3-4.4,9,9,0,0,1,1.2-.7l.3-.1.3-.1.7-.3a19.52,19.52,0,0,1,3-.8l2.2-.3.6.1a22.71,22.71,0,0,1,6.9,2.2,10.58,10.58,0,0,1,2.7,2,4.83,4.83,0,0,1,1.5,2.8,6.13,6.13,0,0,1-.7,3.2,25.2,25.2,0,0,1-2,3.3v.1a9.6,9.6,0,0,0,3.1-2.6,6.59,6.59,0,0,0,1.5-4,7,7,0,0,0-1.6-4.3,12.6,12.6,0,0,0-3.2-2.8l-.7-.4,3.7-.2a38.07,38.07,0,0,0,7.5-1.2,20.18,20.18,0,0,0,3.6-1.4,12.85,12.85,0,0,0,3.3-2.2,11.71,11.71,0,0,0,3.4-6.7l-.3-.1a28.48,28.48,0,0,1-2.2,2.7,15.24,15.24,0,0,1-2.6,2,15.53,15.53,0,0,1-6,2.4,36.81,36.81,0,0,1-6.8.3l-7-.3a53.6,53.6,0,0,0-7.6.2,24.85,24.85,0,0,0-4,.8l-1,.3-.4.2h-.3l-.3.2a13.83,13.83,0,0,0-2,1l-1.2,1a23.42,23.42,0,0,0-4.3-11.8,11.74,11.74,0,0,0-1.5-1.8,8.11,8.11,0,0,1-.3-2.4,11.68,11.68,0,0,1,1.4-4.9,15.65,15.65,0,0,1,3.3-4.2A25.93,25.93,0,0,1,112.4,0h-3a13.86,13.86,0,0,0-1.4.9,16.36,16.36,0,0,0-4.3,4.4,13.59,13.59,0,0,0-2.3,5.9C96.3,7.5,89,3.6,85.2,0H82.5a17.19,17.19,0,0,0,4,4.5c8.7,7.2,17,12.6,18.2,20.9s-3.8,18.8-14,26.4c-2,1.42-4.08,2.76-6.2,4,0,0,6.6-11.7,5-21s-10-16.6-14-20.6-6.8-13-6.8-13-.4,11.3,7.6,19.2a21.65,21.65,0,0,1,5,7.9,24.6,24.6,0,0,0-10.5-2,39.37,39.37,0,0,0-5,.2,4.34,4.34,0,0,1-1.3-.8A7.05,7.05,0,0,1,63,23c-.8-2-1.3-4.5-2-6.9a19.55,19.55,0,0,0-1.5-3.6,10.4,10.4,0,0,0-2.6-3,8.62,8.62,0,0,0-3.6-1.7,9.72,9.72,0,0,0-3.8,0V8c2.4.8,4.6,1.5,6.1,3a11.39,11.39,0,0,1,2.8,5.9l.7,3.5a27.27,27.27,0,0,0,.9,3.8,11.09,11.09,0,0,0,1.1,2.4c-3.6.1-5.8,0-8.2-1.5-4-2.4-5.2-8-5.2-8s.5,7,5.9,10.1S67.4,29.7,72.8,30a14.29,14.29,0,0,1,10,4.3,33.59,33.59,0,0,1-1,11.6c-2.6,10.8-17,23-17,23l-2,1.6c0-1.3.8-7.4-1.6-12.3-2.9-5.7-5.6-6.9-9.8-11-4.4-4.4-4.6-15.3-4.6-15.3s-.4,8.3,1.2,12.7c2.5,6.8,6.1,6.2,9,15.8,1.8,6-1,16.4-1,16.4a54.92,54.92,0,0,0-6.6,9l-1,1.5A64.29,64.29,0,0,0,36.6,74.4c-3-4.8-6-13.2-1-20.9C40.4,46,46.7,46,46.7,46a19.19,19.19,0,0,0-15,7.4c-3.5,4.7-3.5,12.5-3.5,15a31.17,31.17,0,0,1-8.7-8c-1-4.2-1.7-10.7,1.1-16,3.4-6.3,9.2-10,11.6-14.5,2.8-5.2,1.1-11.4,1.1-11.4s1.5,8.6-4.3,13.2S17.7,40,16.8,44.9c.9-7.6,4.4-12,4.4-18.3,0-8.2-6.3-14.2-6.3-14.2s3.8,5.9,4.6,11.4a12,12,0,0,0-6.2-5.6C9,16.4,8,11.7,8,11.7s-1.4,4,5,8c3.1,2,4.8,6,5.7,8.7-1,3.4-3,7.3-4.7,11.6q-.71-2.28-1.6-4.5A25.33,25.33,0,0,0,8,28.4a24.68,24.68,0,0,1,2,4.1c1.2,3.2,2,5,1.4,10.7a43.44,43.44,0,0,0,0,9.4l.1,1.7a19.54,19.54,0,0,0,3.1,8.6,11,11,0,0,0-10-.1A16.7,16.7,0,0,0,0,65.9v2.6a19.4,19.4,0,0,1,4-2.3c7-3,15.7,3.2,16.5,3.8,4.3,4.5,9.5,9,14.4,14.3,6.8,7.6,8,13.5,7.9,16.8l-.7,3A55.84,55.84,0,0,0,41,116.8s-2-3.3-11-4.4c-2.7-1.4-6.8-4.3-7.5-9.6-1-8,3-12,3-12a17.11,17.11,0,0,0-5.7,14.3,11,11,0,0,0,3.3,7,94.93,94.93,0,0,0-11.3.8A27.54,27.54,0,0,1,0,112v8.6l3.3-.4c4.7.5,9.6,0,14.8.2a13,13,0,0,0-7.9,6.4,20.09,20.09,0,0,0-.6,18s-2.8-8.1,2.5-14.3c9.5-11.2,23.5-4.3,24-4a27.35,27.35,0,0,1,8.7,11.8c.3.8,9.3,18.5,12.1,25C81.2,218.7,33.4,308,33.4,308H65.2s31.5-80,22.1-122.8Z"/><path class="cls-2" d="M116.6,21.4s-3.9-1.2-4.6-4.6a16.72,16.72,0,0,1-.2-5.6,11.69,11.69,0,0,1,.3-1.2s3.2,2.7,4.2,4.8a10.46,10.46,0,0,1,.4,6.4ZM13.7,13S10,11.5,9.1,8.2A17,17,0,0,1,9,2.6a10.13,10.13,0,0,1,.2-1.1s3.3,2.7,4.3,4.8a10.38,10.38,0,0,1,.3,6.4v.2ZM9,80.8a21.13,21.13,0,0,0-9-1v2A32.9,32.9,0,0,1,9,80.8Zm236.9,2.9s4.6,2,8-.5a21.37,21.37,0,0,0,5.5-6.1s-5.1-.5-7.8.7c-3.6,1.6-5.7,6-5.7,6Zm4.7,8.6s2.5,2.2,5.2,1.3a14.22,14.22,0,0,0,4.7-2.8s-3.1-1.3-5.1-1.1a9,9,0,0,0-4.8,2.6ZM49.9,58a4,4,0,0,0,.9,3.5,9.55,9.55,0,0,0,3.1,1.8.09.09,0,0,0,0-.1,10.6,10.6,0,0,0-1-3.3,6.45,6.45,0,0,0-3-2A.17.17,0,0,0,49.9,58ZM4.8,49.8a4,4,0,0,0,.9,3.5,9.55,9.55,0,0,0,3.1,1.8.09.09,0,0,0,0-.1,10.64,10.64,0,0,0-1-3.2A6.45,6.45,0,0,0,4.8,49.8ZM20.1,8.9A4,4,0,0,0,18.4,12a9.33,9.33,0,0,0,1,3.5.09.09,0,0,0,.1,0,10.82,10.82,0,0,0,1.5-3,6.43,6.43,0,0,0-.8-3.7ZM213,106.5s-1.6,7.4,3,11.6a31.49,31.49,0,0,0,10.6,6,.29.29,0,0,0,.2-.2c-.4-1.4-1.3-7.7-3.5-10.9a21.31,21.31,0,0,0-10.1-6.8A1.21,1.21,0,0,0,213,106.5Zm-35.6-1.2s4,1.8,7-.4a18.21,18.21,0,0,0,4.7-5.3.24.24,0,0,0-.1-.1c-.9,0-4.6-.2-6.7.7a12.41,12.41,0,0,0-5,5ZM161,60.5s-3.9,1.2-6.4-1a16.7,16.7,0,0,1-3.4-4.6c-.18-.32-.35-.66-.5-1,0,0,4.2.3,6.3,1.4a10.31,10.31,0,0,1,4,5v.2Zm11.1,65.6s1.2,7.4,7,9.6a31.11,31.11,0,0,0,12,2,.3.3,0,0,0,0-.4c-.9-1.2-4-6.7-7.1-8.8-4.6-3-11-2.8-11.8-2.8a.9.9,0,0,0,0,.4Zm59.8-18.3s-1,4.3,1.8,6.7a18.37,18.37,0,0,0,6.1,3.6.2.2,0,0,0,.1-.2c-.2-.8-.7-4.5-2-6.3a12.4,12.4,0,0,0-5.9-4,.75.75,0,0,0-.1.2ZM169.4,128s-2.2,2.7-1.2,5.4a14.29,14.29,0,0,0,3,4.7.17.17,0,0,0,.1,0c.2-.7,1.2-3.5,1-5.2a9.83,9.83,0,0,0-2.7-5,.54.54,0,0,0-.2.1ZM196,94.2s-1.3,6,2.4,9.4a25.28,25.28,0,0,0,8.5,4.9.29.29,0,0,0,.2-.3c-.3-1.1-1-6.2-2.9-8.7a17.2,17.2,0,0,0-8.1-5.6,1,1,0,0,0-.2.3Zm-89.6,28.5s-1.3,6.1,2.5,9.6a25.93,25.93,0,0,0,8.8,5,.3.3,0,0,0,.1-.2c-.3-1.2-1-6.4-2.9-9a17.67,17.67,0,0,0-8.4-5.7,1,1,0,0,0-.1.3Zm58.7-43.8s2,3.9,5.8,4a18.24,18.24,0,0,0,7-1.3.18.18,0,0,0,0-.2c-.7-.4-3.5-2.9-5.7-3.5a11.89,11.89,0,0,0-7,.8.67.67,0,0,0,0,.2ZM251,64a11.21,11.21,0,0,0-4.4,2.9c-2.2,2.2-3.1,5.6-8.4,7.5a6.59,6.59,0,0,1-8-3.3c-1.5-4,1.1-7.3,7-9.4,4.9-1.7,11.8,1.1,13.5,2a.55.55,0,0,1,.2.3ZM141.9,158.3a10,10,0,0,0-2.3-4c-1.8-2-4.8-3.1-6.2-7.9a5.8,5.8,0,0,1,3.5-7c3.5-1,6.3,1.5,7.9,6.8,1.2,4.5-1.8,10.5-2.6,11.9a.52.52,0,0,1-.3.2Zm81.5-60.1a4.49,4.49,0,0,0-1.8,1.2c-.8.9-1.2,2.3-3.3,3a2.7,2.7,0,0,1-3.3-1.3c-.6-1.6.5-3,2.8-3.8,2-.7,4.8.5,5.5.8A.24.24,0,0,1,223.4,98.2Zm-43.8,14.1a4.49,4.49,0,0,0-1.8,1.2c-.8.9-1.2,2.3-3.3,3a2.7,2.7,0,0,1-3.3-1.3c-.6-1.6.5-3,2.8-3.8,2-.7,4.8.4,5.5.8A.24.24,0,0,1,179.6,112.3Zm53.5-62.1a4.49,4.49,0,0,0-.5,2c0,1.3.6,2.6-.4,4.6A2.7,2.7,0,0,1,229,58c-1.5-.8-1.7-2.5-.5-4.8,1-1.8,3.8-2.9,4.6-3a.17.17,0,0,1,.1,0Zm-147.7,72a7.08,7.08,0,0,1,3.2-.7c2,0,3.9,1.2,7-.3a4.09,4.09,0,0,0,2.2-5c-1.1-2.4-3.8-2.7-7.3-1-3,1.3-4.8,5.7-5.2,6.7A.29.29,0,0,0,85.4,122.2Zm4.7,24.4a11.31,11.31,0,0,1,3.4-4c2.5-1.8,6-2.4,8.5-7.3a6.5,6.5,0,0,0-2.3-8.4c-3.7-2-7.3.2-10.1,5.8-2.4,4.6-.4,12,.2,13.6A.5.5,0,0,0,90.1,146.6Zm15.1,6.9a4.73,4.73,0,0,1,2-1c1.3-.3,2.8.1,4.6-1.4a2.9,2.9,0,0,0,.6-3.8c-1.2-1.4-3-1.1-5,.6-1.8,1.4-2.3,4.7-2.3,5.5a.17.17,0,0,0,0,.1Zm75.1-78a4.73,4.73,0,0,1,2,1c1,1,1.4,2.3,3.7,3a2.8,2.8,0,0,0,3.3-1.7c.4-1.7-.8-3-3.3-3.7-2.1-.6-5,.9-5.6,1.3a.17.17,0,0,0,0,.1Zm-35.6,28.7a4.73,4.73,0,0,1,1,2c.4,1.2,0,2.6,1.6,4.4a2.81,2.81,0,0,0,3.7.4c1.3-1.2,1-3-.7-4.9-1.5-1.6-4.7-2-5.4-2a.2.2,0,0,0-.2.1Zm-23.5,36.4a5.74,5.74,0,0,1,2.2-1.6c1.4-.6,3.2-.4,5-2.6a3.41,3.41,0,0,0,0-4.5c-1.7-1.4-3.7-.7-5.8,1.7-1.7,2-1.6,6-1.5,6.8a.3.3,0,0,0,.1.2Zm1.8,16.6c2.8-4,.3-8.9.3-8.9a.39.39,0,0,0-.2-.2,14.74,14.74,0,0,0-4.4.9c-1.7.6-4.6,3-4.3,6.2.4,3.5-.4,5.3-.8,5.8-.1.2,0,.2,0,.2A10,10,0,0,0,123,157.2ZM84.8,109.3s.3,6-3.8,8.6a24.78,24.78,0,0,1-9,3.5.29.29,0,0,1-.1-.3c.3-1.1,2-5.8,4-8a16.05,16.05,0,0,1,9-3.8Zm46.2,3.3s.2,4.5-3,6.6a18.72,18.72,0,0,1-6.7,2.7.18.18,0,0,1,0-.2c.2-1,1.4-4.5,3-6.1,2.4-2.6,6.6-3,6.6-3Zm35.6,6.6s-1.5,5.1-5.8,6.2a21.91,21.91,0,0,1-8.5.2.18.18,0,0,1,0-.2c.6-.9,3.4-4.4,5.8-5.6C161.7,118,166.6,119.2,166.6,119.2ZM131.3,83.1s-3.7.6-5.6-1.9a15.53,15.53,0,0,1-2.6-5.4h.1a15.19,15.19,0,0,1,5.2,2,10.49,10.49,0,0,1,3,5.3ZM240.4,107c-5.4-1.8-7.3-7.6-7.7-9.4a2.06,2.06,0,0,1,0-.7,16.06,16.06,0,0,1,5.1-2.9c2.5-.9,7.9-1,10.3,3,2.7,4.6,5.2,5.6,5.8,5.9a.51.51,0,0,1,0,.3s-5.3,6.3-13.5,3.7ZM214.3,70.1C210,75,203,74,201,73.4a2.28,2.28,0,0,1-.7-.3,18.32,18.32,0,0,1-.4-6.8c.3-3,2.9-8.5,8.2-9,6-.5,8.3-2.6,9-3a.48.48,0,0,1,.4.1s3.6,8.6-3,15.7ZM175.1,59.8c-2.8,3-7.1,2.3-8.4,2a1.46,1.46,0,0,1-.5-.2,11.75,11.75,0,0,1-.2-4.3c.1-1.8,1.8-5.4,5.1-5.6,3.8-.4,5.3-1.7,5.7-2a.34.34,0,0,1,.2,0,9.61,9.61,0,0,1-1.9,10ZM129.5,20c4,4,9.8,2,9.8,2a13.59,13.59,0,0,0,.2-5.2c-.4-2.1-2.5-5.8-6.2-6-5-.4-6.6-2-6.6-2A11.31,11.31,0,0,0,129.5,20Zm-7.2-5.2a4,4,0,0,0-1.8,3.1,9.33,9.33,0,0,0,1,3.5.09.09,0,0,0,.1,0,10.82,10.82,0,0,0,1.5-3A6.47,6.47,0,0,0,122.3,14.8Zm9.8,28.8a4,4,0,0,0-1.7,3.2,9.33,9.33,0,0,0,1,3.5.09.09,0,0,0,.1,0,10.85,10.85,0,0,0,1.5-3.1,6.47,6.47,0,0,0-.8-3.6ZM163,67.3a4,4,0,0,0,1.8,3,9.37,9.37,0,0,0,3.6.9.09.09,0,0,0,0-.1,10.68,10.68,0,0,0-2-2.8,6.41,6.41,0,0,0-3.5-1.1ZM138.4,31s2,4,5.6,4.3a18.46,18.46,0,0,0,7-.9.18.18,0,0,0,0-.2c-.6-.5-3.2-3.1-5.4-3.8-3-1-6.8.2-7.2.4a.67.67,0,0,0,0,.2Zm36.1-12.8a10.7,10.7,0,0,0-4.3,2.4c-2.2,2-3.4,5.1-8.5,6.6a6.3,6.3,0,0,1-7.5-3.7c-1-3.9,1.7-6.9,7.4-8.5,4.8-1.3,11.2,1.9,12.7,2.8a.48.48,0,0,1,.2.4Zm-21,28.5a7.45,7.45,0,0,0-3,2c-1.5,1.4-2.1,3.7-5.6,5a4.41,4.41,0,0,1-5.5-2.3c-1-2.6.8-4.9,4.8-6.3,3.3-1.2,8,.8,9,1.3A.39.39,0,0,1,153.5,46.7Zm-36.9-4.9a6.66,6.66,0,0,1,2.8-1.3c1.8-.5,3.8,0,6.5-2a4,4,0,0,0,.7-5.3c-1.6-1.9-4.1-1.6-7,.8-2.4,2-3,6.6-3.1,7.6a.34.34,0,0,0,0,.2ZM35.1,38c1.3,4.2,6.1,5,6.1,5a10.8,10.8,0,0,0,2-3.5c.6-1.6.5-5-2-6.5-3.3-2-3.9-3.8-3.9-3.8A9,9,0,0,0,35.1,38ZM97.7,22a4,4,0,0,0,1,3.5,9.56,9.56,0,0,0,3,1.8.09.09,0,0,0,.1-.1,10.64,10.64,0,0,0-1-3.2,6.45,6.45,0,0,0-3-2A.17.17,0,0,0,97.7,22ZM93,37.2a5.11,5.11,0,0,1,2.4-.5c1.5,0,2.9.9,5.2-.2a3,3,0,0,0,1.6-3.7c-.8-1.8-2.8-2-5.4-.8-2.2,1-3.5,4.3-3.8,5A.18.18,0,0,0,93,37.2Zm-24.1,7a4.59,4.59,0,0,1,2,.4c1.2.5,2,1.6,4.4,1.5a2.7,2.7,0,0,0,2.5-2.6c-.1-1.7-1.6-2.5-4.1-2.3-2.2,0-4.3,2.3-4.8,2.8A.18.18,0,0,0,68.9,44.2ZM63.5,15.8a5.61,5.61,0,0,1,2.1,1.7c1,1.2,1.3,3,4,4.2a3.4,3.4,0,0,0,4.2-1.3c.9-2-.3-3.8-3.2-5.1-2.4-1.1-6.1,0-7,.4a.17.17,0,0,0,0,.1Zm14.2-2.3a8,8,0,0,1,3.5,1c2,1,3.3,3,7.2,3.2a4.61,4.61,0,0,0,4.7-4c.2-2.9-2.3-4.6-6.7-4.7-3.7-.2-7.8,3.3-8.7,4.2A.32.32,0,0,0,77.7,13.5ZM46.1,17s-4.8,2.7-8.8.4a23.06,23.06,0,0,1-6.6-6,.19.19,0,0,1,.07-.27.16.16,0,0,1,.13,0c1-.2,5.7-.7,8.4.1C43.3,12.5,46.1,17,46.1,17ZM78.3,50s-1.6,5-5.8,5.8a21.59,21.59,0,0,1-8.4,0,.18.18,0,0,1,0-.2c.7-.9,3.5-4.1,5.9-5.2,3.6-1.7,8.3-.3,8.3-.3ZM19,131.5s3.3,5.3,8.5,5.2a26.06,26.06,0,0,0,9.9-2.3.32.32,0,0,0,0-.3c-1-.6-5.2-3.9-8.4-4.6-4.5-.9-9.5,1.4-10,1.7a.76.76,0,0,0,0,.3ZM13.5,140s.5,3.1,3,4a13.33,13.33,0,0,0,5,.9.1.1,0,1,0,0-.2,12.36,12.36,0,0,0-3-3.7,9,9,0,0,0-5-1.2v.2Zm-2,9s-3,5.2-.4,9.6a25.28,25.28,0,0,0,6.7,7.2.29.29,0,0,0,.2-.2c0-1.2.8-6.2-.1-9.2a17,17,0,0,0-6.1-7.7,1,1,0,0,0-.3.2ZM8.8,91.4a10.4,10.4,0,0,1,4.1-2.5c2.7-.9,5.9-.3,9.6-4a6,6,0,0,0,.4-8c-2.7-2.7-6.5-1.8-10.6,2.2-3.4,3.4-3.7,10.4-3.7,12A.52.52,0,0,0,8.8,91.4ZM25.4,45.8a4.48,4.48,0,0,1,2.1.4c1.2.5,2,1.6,4.3,1.5a2.7,2.7,0,0,0,2.5-2.6c0-1.7-1.6-2.5-4.1-2.3-2.1,0-4.3,2.3-4.7,2.8a.18.18,0,0,0,0,.2Zm-6.9,61.8s-4.7.4-7-2.8a19.46,19.46,0,0,1-3-7,.18.18,0,0,1,.2,0c1,.2,4.7,1.3,6.5,3C17.9,103.1,18.5,107.6,18.5,107.6Zm95.3-15.1s2,4,0,7.2a18.62,18.62,0,0,1-5.2,5h-.1a17,17,0,0,1,.4-6.9C110,94.6,113.8,92.5,113.8,92.5Zm-5.3-1.1s-2.3,4.8-6.6,5.2a21.87,21.87,0,0,1-8.5-1,.2.2,0,0,1,0-.28l0,0c.7-.8,4-3.8,6.5-4.6C103.9,89.4,108.5,91.4,108.5,91.4ZM52.4,73.5s-4.4.6-6.7-2.3a18.74,18.74,0,0,1-3.2-6.6.18.18,0,0,1,.2,0A15.63,15.63,0,0,1,49,67.1,12,12,0,0,1,52.4,73.5Zm-13.6,19s-1.6,5-5.8,5.8a21.46,21.46,0,0,1-8.3,0,.2.2,0,0,1,0-.28l0,0c.6-.8,3.4-4,5.8-5.1C34.1,91.1,38.8,92.5,38.8,92.5ZM53,38.2a4.48,4.48,0,0,1,1.5-1.5c1-.7,2.4-.8,3.6-2.8a2.7,2.7,0,0,0-.7-3.4c-1.5-.9-3-.1-4.3,2-1,2-.4,5-.2,5.6A.24.24,0,0,0,53,38.2ZM63.4,32s3.2,4.1,1.6,8a21.5,21.5,0,0,1-4.6,7,.2.2,0,0,1-.2-.1c-.4-1-1.5-5.2-1.1-7.8.6-3.9,4.3-7,4.3-7ZM128,65.4s-1.3,6,2.5,9.3a25.28,25.28,0,0,0,8.5,5,.29.29,0,0,0,.1-.3c-.3-1.1-1-6.2-2.8-8.7a17.08,17.08,0,0,0-8.1-5.6A1,1,0,0,0,128,65.4Zm-18.5-2.8s2,3.9,5.7,4a18.37,18.37,0,0,0,7-1.2.18.18,0,0,0,0-.2c-.7-.5-3.4-3-5.6-3.6a12.45,12.45,0,0,0-7.1.8A.67.67,0,0,0,109.5,62.6Z"/><g class="cls-3"><path class="cls-2" d="M177.94,271.65v13.27q-13.27,7.24-30.65,7.25-14.11,0-24-5.68a41.81,41.81,0,0,1-15.56-15.62A42.38,42.38,0,0,1,102,249.32a41.13,41.13,0,0,1,13.13-30.95q13.13-12.56,32.37-12.55,13.28,0,29.51,6.94v13q-14.79-8.44-28.9-8.45-14.49,0-24,9.14a30.36,30.36,0,0,0-9.57,22.9q0,13.89,9.42,22.81T148,281.06Q163.34,281.06,177.94,271.65Z"/><path class="cls-2" d="M213.67,255.88l-9.18-5.57q-8.62-5.28-12.28-10.37a19.67,19.67,0,0,1-3.65-11.74A20.77,20.77,0,0,1,195.47,212q6.92-6.21,18-6.21a33.89,33.89,0,0,1,19.36,5.93v13.69q-9.1-8.76-19.61-8.76a16.23,16.23,0,0,0-9.71,2.73,8.3,8.3,0,0,0-3.8,7,10.78,10.78,0,0,0,2.8,7.09,35.18,35.18,0,0,0,9,6.94l9.22,5.45q15.42,9.22,15.42,23.46,0,10.13-6.78,16.47t-17.65,6.34a37,37,0,0,1-22.75-7.68V269.16q9.76,12.39,22.62,12.39a14.25,14.25,0,0,0,9.45-3.16,9.91,9.91,0,0,0,3.77-7.91Q224.77,262.79,213.67,255.88Z"/><path class="cls-2" d="M270.27,255.88l-9.17-5.57q-8.64-5.28-12.28-10.37a19.6,19.6,0,0,1-3.65-11.74q0-9.94,6.9-16.17t18-6.21a34,34,0,0,1,19.37,5.93v13.69q-9.12-8.76-19.62-8.76a16.23,16.23,0,0,0-9.71,2.73,8.32,8.32,0,0,0-3.8,7,10.78,10.78,0,0,0,2.8,7.09,35.36,35.36,0,0,0,9,6.94l9.22,5.45q15.42,9.22,15.42,23.46,0,10.13-6.78,16.47t-17.65,6.34a37.07,37.07,0,0,1-22.75-7.68V269.16q9.76,12.39,22.63,12.39a14.24,14.24,0,0,0,9.44-3.16,9.91,9.91,0,0,0,3.77-7.91Q281.37,262.79,270.27,255.88Z"/></g></svg>